<svg width="48" height="48" viewBox="0 0 48 48" fill="none" xmlns="http://www.w3.org/2000/svg">
<circle cx="24" cy="24" r="24" fill="#FF6B2C"/>
<g clip-path="url(#clip0)">
<path d="M32.5061 21.8717L28.8586 21.8717L28.8586 29.2024L20.1064 29.2024L20.1064 21.8717L16.459 21.8717L24.4826 12L32.5061 21.8717Z" fill="white"/>
<path d="M28.8586 34.2707C28.8586 34.6733 28.5319 35 28.1294 35L20.8359 35C20.4332 35 20.1064 34.6733 20.1064 34.2707C20.1064 33.868 20.4332 33.5413 20.8359 33.5413L28.1294 33.5413C28.5319 33.5413 28.8586 33.868 28.8586 34.2707Z" fill="white"/>
<path d="M28.8586 31.3532C28.8586 31.7558 28.5319 32.0825 28.1294 32.0825L20.8359 32.0825C20.4332 32.0825 20.1064 31.7558 20.1064 31.3532C20.1064 30.9507 20.4332 30.624 20.8359 30.624L28.1294 30.624C28.5319 30.624 28.8586 30.9507 28.8586 31.3532Z" fill="white"/>
<path d="M32.5061 21.8717L28.8587 21.8717L28.8587 29.2024L24.4826 29.2024L24.4826 12L32.5061 21.8717Z" fill="#E6E7E6"/>
</g>
<defs>
<clipPath id="clip0">
<rect width="23" height="23" fill="white" transform="translate(13 35) rotate(-90)"/>
</clipPath>
</defs>
</svg>
