<svg width="23" height="23" viewBox="0 0 23 23" fill="none" xmlns="http://www.w3.org/2000/svg">
<g clip-path="url(#clip0)">
<path d="M3.49391 13.1282L7.14135 13.1282L7.14135 5.79755L15.8936 5.79755L15.8936 13.1282L19.541 13.1282L11.5174 23L3.49391 13.1282Z" fill="#545655"/>
<path d="M7.14133 0.729278C7.14133 0.326736 7.46807 -3.6829e-07 7.87061 -3.50694e-07L15.1641 -3.18855e-08C15.5668 -1.42821e-08 15.8936 0.326737 15.8936 0.729279C15.8936 1.132 15.5668 1.45873 15.1641 1.45873L7.87061 1.45873C7.46807 1.45873 7.14133 1.132 7.14133 0.729278Z" fill="#616664"/>
<path d="M7.14133 3.64676C7.14133 3.24422 7.46807 2.91748 7.87061 2.91748L15.1641 2.91748C15.5668 2.91748 15.8936 3.24422 15.8936 3.64676C15.8936 4.0493 15.5668 4.37604 15.1641 4.37604L7.87061 4.37604C7.46807 4.37604 7.14133 4.0493 7.14133 3.64676Z" fill="#616664"/>
<path d="M3.49387 13.1282L7.14131 13.1282L7.14131 5.79755L11.5173 5.79755L11.5173 23L3.49387 13.1282Z" fill="#616664"/>
</g>
<defs>
<clipPath id="clip0">
<rect width="23" height="23" fill="white" transform="translate(23) rotate(90)"/>
</clipPath>
</defs>
</svg>
