<svg width="35" height="34" viewBox="0 0 35 34" fill="none" xmlns="http://www.w3.org/2000/svg">
<path d="M26.0577 20.4591C24.2529 20.4591 22.5317 20.0659 20.9444 19.29C20.6955 19.1708 20.4069 19.152 20.1434 19.2419C19.8799 19.3339 19.6644 19.5263 19.5431 19.7752L18.7903 21.3333C16.5316 20.0366 14.6578 18.1607 13.359 15.902L14.9192 15.1492C15.1701 15.0279 15.3605 14.8125 15.4525 14.5489C15.5424 14.2854 15.5257 13.9968 15.4044 13.748C14.6264 12.1627 14.2332 10.4415 14.2332 8.63462C14.2332 8.05741 13.7648 7.58894 13.1875 7.58894H9.32692C8.74971 7.58894 8.28125 8.05741 8.28125 8.63462C8.28125 18.4368 16.2556 26.4111 26.0577 26.4111C26.6349 26.4111 27.1034 25.9426 27.1034 25.3654V21.5048C27.1034 20.9276 26.6349 20.4591 26.0577 20.4591Z" fill="#FAFAFA"/>
</svg>
