<svg width="51" height="51" viewBox="0 0 51 51" fill="none" xmlns="http://www.w3.org/2000/svg">
<path d="M9.96043 35.262H1.99209C0.891857 35.262 0 36.1539 0 37.2541V49.0074C0 50.1076 0.891857 50.9995 1.99209 50.9995H9.96043C11.0607 50.9995 11.9525 50.1076 11.9525 49.0074V37.2541C11.9525 36.1539 11.0607 35.262 9.96043 35.262ZM7.96834 47.0153H3.98417V39.2462H7.96834V47.0153ZM26.7672 23.5087H18.7988C17.6986 23.5087 16.8067 24.4006 16.8067 25.5008V49.0074C16.8067 50.1076 17.6986 50.9995 18.7988 50.9995H26.7672C27.8674 50.9995 28.7592 50.1076 28.7592 49.0074V25.5008C28.7592 24.4006 27.8674 23.5087 26.7672 23.5087ZM24.7751 47.0153H20.7909V27.4929H24.7751V47.0153ZM50.6298 13.4858L41.6537 0.841068C40.8399 -0.305677 39.1799 -0.250595 38.405 0.840968L29.4279 13.4857C28.4936 14.8019 29.4361 16.631 31.0523 16.631H34.0526V49.0074C34.0526 50.1076 34.9445 50.9995 36.0447 50.9995H44.0131C45.1133 50.9995 46.0051 50.1076 46.0051 49.0074V16.631H49.0053C50.6192 16.631 51.5653 14.8037 50.6298 13.4858ZM44.0131 12.6469C42.9128 12.6469 42.021 13.5388 42.021 14.639V47.0153H38.0368V14.639C38.0368 13.5388 37.1449 12.6469 36.0447 12.6469H34.9096L40.0292 5.43552L45.1482 12.6469H44.0131Z" fill="#57B894"/>
</svg>
