<svg width="52" height="51" viewBox="0 0 52 51" fill="none" xmlns="http://www.w3.org/2000/svg">
<circle cx="22" cy="22" r="14.75" stroke="#333333" stroke-width="0.5"/>
<path d="M4.85 22.24C5.31 22.16 5.59 22.01 5.69 21.79C5.79 21.57 5.83 21.23 5.81 20.77V5.17C5.81 4.75 5.76 4.44 5.66 4.24C5.56 4.02 5.46 3.86 5.36 3.76C5.22 3.64 5.06 3.58 4.88 3.58C5.08 3 5.34 2.5 5.66 2.08C5.94 1.72 6.3 1.42 6.74 1.18C7.2 0.919999 7.76 0.869999 8.42 1.03C8.98 1.15 9.39 1.36 9.65 1.66C9.93 1.94 10.11 2.27 10.19 2.65C10.27 3.03 10.27 3.46 10.19 3.94C10.13 4.4 10.03 4.87 9.89 5.35C9.75 5.83 9.6 6.31 9.44 6.79C9.28 7.27 9.15 7.71 9.05 8.11C8.93 8.39 8.88 8.6 8.9 8.74C8.92 8.88 8.97 8.96 9.05 8.98C9.15 9 9.25 8.96 9.35 8.86C9.47 8.74 9.55 8.58 9.59 8.38C9.65 8.1 9.73 7.75 9.83 7.33C9.95 6.91 10.1 6.46 10.28 5.98C10.46 5.48 10.68 4.99 10.94 4.51C11.2 4.01 11.52 3.56 11.9 3.16C12.28 2.74 12.72 2.4 13.22 2.14C13.72 1.86 14.29 1.7 14.93 1.66C16.15 1.58 17.18 1.86 18.02 2.5C18.86 3.12 19.54 3.97 20.06 5.05C20.58 6.13 20.94 7.38 21.14 8.8C21.34 10.2 21.4 11.64 21.32 13.12C21.26 14.58 21.07 16.03 20.75 17.47C20.43 18.89 20 20.16 19.46 21.28C18.94 22.38 18.32 23.28 17.6 23.98C16.88 24.66 16.09 25 15.23 25C14.75 25 14.25 24.93 13.73 24.79C13.23 24.65 12.75 24.42 12.29 24.1C11.85 23.76 11.45 23.32 11.09 22.78C10.73 22.24 10.46 21.57 10.28 20.77C10.3 21.11 10.31 21.52 10.31 22C10.31 22.46 10.23 22.9 10.07 23.32C9.93 23.74 9.68 24.1 9.32 24.4C8.96 24.7 8.43 24.85 7.73 24.85C7.29 24.85 6.89 24.76 6.53 24.58C6.19 24.4 5.9 24.18 5.66 23.92C5.42 23.66 5.23 23.38 5.09 23.08C4.95 22.78 4.87 22.5 4.85 22.24ZM13.37 23.02C13.59 23.16 13.75 23.23 13.85 23.23C14.19 23.23 14.51 22.94 14.81 22.36C15.11 21.78 15.38 21.01 15.62 20.05C15.86 19.09 16.06 18.01 16.22 16.81C16.38 15.59 16.49 14.34 16.55 13.06C16.63 11.78 16.66 10.54 16.64 9.34C16.62 8.12 16.54 7.03 16.4 6.07C16.26 5.11 16.06 4.34 15.8 3.76C15.56 3.18 15.24 2.89 14.84 2.89C14.38 2.89 13.97 3.01 13.61 3.25C13.25 3.49 12.93 3.8 12.65 4.18C12.39 4.56 12.17 5 11.99 5.5C11.81 5.98 11.66 6.48 11.54 7C11.26 8.22 11.1 9.6 11.06 11.14C11.04 11.68 11.04 12.32 11.06 13.06C11.1 13.78 11.15 14.55 11.21 15.37C11.29 16.17 11.39 16.98 11.51 17.8C11.65 18.6 11.8 19.35 11.96 20.05C12.14 20.75 12.35 21.37 12.59 21.91C12.83 22.43 13.09 22.8 13.37 23.02Z" fill="#FF6B2C"/>
<path d="M22.45 35.64C22.91 34.48 23.35 33.3 23.77 32.1C24.15 31.08 24.53 29.97 24.91 28.77C25.31 27.55 25.65 26.39 25.93 25.29C26.09 24.65 26.22 24 26.32 23.34C26.44 22.66 26.52 22.04 26.56 21.48C26.62 20.92 26.64 20.45 26.62 20.07C26.6 19.69 26.54 19.47 26.44 19.41C26.58 19.37 26.75 19.33 26.95 19.29C27.11 19.25 27.29 19.22 27.49 19.2C27.71 19.18 27.94 19.17 28.18 19.17C28.6 19.17 29.04 19.22 29.5 19.32C29.98 19.42 30.45 19.61 30.91 19.89C31.37 20.15 31.79 20.53 32.17 21.03C32.57 21.51 32.9 22.15 33.16 22.95C33.3 23.39 33.44 23.95 33.58 24.63C33.72 25.29 33.85 26.01 33.97 26.79C34.11 27.55 34.24 28.35 34.36 29.19C34.5 30.03 34.62 30.84 34.72 31.62C34.84 32.4 34.95 33.13 35.05 33.81C35.17 34.47 35.27 35.03 35.35 35.49C35.59 36.65 35.85 37.58 36.13 38.28C36.43 38.98 36.71 39.53 36.97 39.93C37.27 40.37 37.57 40.69 37.87 40.89C37.35 41.27 36.77 41.56 36.13 41.76C35.49 41.96 34.85 42.06 34.21 42.06C33.63 42.06 33.06 41.98 32.5 41.82C31.96 41.66 31.48 41.41 31.06 41.07C30.66 40.73 30.34 40.3 30.1 39.78C29.86 39.26 29.75 38.64 29.77 37.92C29.81 37.08 29.97 36.24 30.25 35.4C30.53 34.56 30.82 33.8 31.12 33.12C31.44 32.44 31.71 31.89 31.93 31.47C32.17 31.03 32.25 30.79 32.17 30.75C32.03 30.69 31.9 30.77 31.78 30.99C31.66 31.19 31.53 31.47 31.39 31.83C31.25 32.17 31.08 32.56 30.88 33C30.7 33.42 30.48 33.82 30.22 34.2C29.96 34.56 29.65 34.87 29.29 35.13C28.93 35.37 28.51 35.49 28.03 35.49C27.45 35.49 26.97 35.29 26.59 34.89C26.21 34.49 26.02 34.01 26.02 33.45C26.02 33.13 26.12 32.78 26.32 32.4C26.52 32 26.79 31.75 27.13 31.65C27.27 31.93 27.45 32.18 27.67 32.4C27.89 32.6 28.17 32.7 28.51 32.7C28.89 32.7 29.2 32.47 29.44 32.01C29.68 31.55 29.85 30.96 29.95 30.24C30.05 29.52 30.08 28.72 30.04 27.84C30.02 26.94 29.93 26.05 29.77 25.17C29.61 24.29 29.39 23.47 29.11 22.71C28.83 21.95 28.48 21.34 28.06 20.88C28.1 21.46 28.12 22.08 28.12 22.74C28.1 23.28 28.05 23.9 27.97 24.6C27.91 25.3 27.77 26.02 27.55 26.76C27.09 28.46 26.65 30.06 26.23 31.56C25.81 33.04 25.51 34.47 25.33 35.85C25.23 36.53 25.28 37.16 25.48 37.74C25.68 38.32 25.92 38.83 26.2 39.27C26.52 39.77 26.9 40.23 27.34 40.65C27.26 41.03 26.97 41.36 26.47 41.64C25.99 41.92 25.45 42.06 24.85 42.06C24.39 42.06 23.94 41.96 23.5 41.76C23.08 41.54 22.73 41.19 22.45 40.71C22.19 40.21 22.04 39.55 22 38.73C21.96 37.89 22.11 36.86 22.45 35.64Z" fill="#3C67FF"/>
<path d="M41 18.5H48.5" stroke="black" stroke-linecap="round"/>
<path d="M43.5 17H51" stroke="black" stroke-opacity="0.5" stroke-linecap="round"/>
<path d="M6.30328 36L0.999983 41.3033" stroke="black" stroke-linecap="round"/>
</svg>
