<svg width="18" height="25" viewBox="0 0 18 25" fill="none" xmlns="http://www.w3.org/2000/svg">
<path d="M9.24058 20.2497H8.0331C7.18273 20.2497 6.49164 20.9408 6.49164 21.7912V23.4585C6.49164 24.3089 7.18273 25 8.0331 25H9.24058C10.091 25 10.782 24.3089 10.782 23.4585V21.7912C10.782 20.9382 10.091 20.2497 9.24058 20.2497Z" fill="#3C67FF"/>
<path d="M0.726551 7.34251L2.95397 7.61998C3.66047 7.70733 4.33101 7.30141 4.58535 6.63601C4.90649 5.79591 5.35351 5.13308 5.92642 4.65009C6.73829 3.9667 7.74792 3.62244 8.9554 3.62244C10.2066 3.62244 11.2034 3.95129 11.9433 4.60641C12.6832 5.2641 13.0506 6.05025 13.0506 6.97256C13.0506 7.63539 12.8425 8.2417 12.4263 8.79149C12.1565 9.14089 11.3267 9.87566 9.94194 10.9984C8.55462 12.1211 7.63234 13.1333 7.1699 14.0324C6.69718 14.9522 6.53276 15.9721 6.49165 16.9947C6.45571 17.8707 7.15448 18.6003 8.03312 18.6003H9.29198C10.0935 18.6003 10.7564 17.9863 10.8283 17.1899C10.8797 16.617 10.9747 16.1828 11.1186 15.8874C11.3601 15.3813 11.9844 14.7133 12.9864 13.8809C14.926 12.2752 16.19 11.0061 16.7835 10.0709C17.3744 9.13832 17.6724 8.14921 17.6724 7.10359C17.6724 5.21529 16.8683 3.55822 15.2574 2.13493C13.6492 0.711643 11.4809 0 8.75761 0C6.16795 0 4.07926 0.701367 2.48642 2.10667C1.12993 3.30387 0.305243 4.72202 0.0149335 6.35854C-0.0750109 6.8364 0.251266 7.28342 0.726551 7.34251Z" fill="#3C67FF"/>
</svg>
