<svg width="596" height="388" viewBox="0 0 596 388" fill="none" xmlns="http://www.w3.org/2000/svg">
<g clip-path="url(#clip0)">
<path d="M117.023 247.235L113.729 245.188C113.415 244.994 113.106 244.785 112.791 244.586C119.805 243.383 126.201 239.83 130.927 234.512C135.653 229.195 138.429 222.428 138.797 215.324C139.166 208.221 137.106 201.203 132.956 195.425C128.805 189.647 122.812 185.452 115.96 183.53L116.122 196.445L109.025 182.399H108.926C104.813 182.207 100.703 182.826 96.8304 184.222C92.9575 185.618 89.3975 187.762 86.3538 190.533C83.3102 193.304 80.8424 196.647 79.0915 200.372C77.3405 204.096 76.3407 208.128 76.1492 212.239C76.1178 212.836 76.1492 213.427 76.1492 214.019C73.6823 211.202 71.4354 208.182 69.9531 204.873C66.952 198.178 66.8944 190.587 67.1301 181.368C67.6015 163.092 68.3923 144.681 69.4189 126.327C76.8298 125.502 83.704 122.064 88.807 116.629C93.91 111.195 96.9077 104.12 97.2619 96.6754C97.3038 95.7174 97.2881 94.7699 97.2619 93.8328C97.2619 93.5972 97.2619 93.3617 97.2252 93.1313C97.1624 92.2204 97.0786 91.32 96.9371 90.43C96.9371 90.2835 96.8848 90.1421 96.8586 90.0008C96.7329 89.2469 96.5758 88.5035 96.3977 87.7654C96.3296 87.4932 96.2615 87.2419 96.1882 86.9435C95.9682 86.1478 95.7273 85.373 95.4444 84.5825C95.3502 84.326 95.2402 84.059 95.1407 83.8182C94.9207 83.2476 94.6797 82.6822 94.4231 82.1273C94.2869 81.8341 94.156 81.5409 94.0146 81.253C93.9727 81.1797 93.9465 81.1012 93.9046 81.0279C90.5949 74.4915 85.0966 69.3222 78.3669 66.4201C71.6371 63.5179 64.1022 63.0666 57.0739 65.1448L57.2834 81.9493L50.2651 68.066C44.4939 71.3707 39.9304 76.4324 37.2403 82.5124C34.5503 88.5923 33.8746 95.3724 35.3118 101.863H35.2803C35.3275 102.088 35.3956 102.298 35.448 102.523C35.5475 102.937 35.6522 103.345 35.7674 103.753C35.9141 104.277 36.0817 104.8 36.2545 105.324C36.3855 105.706 36.5112 106.093 36.6578 106.475C36.8726 107.03 37.1135 107.57 37.3544 108.109C37.4958 108.423 37.6215 108.747 37.7734 109.056C38.1715 109.869 38.6045 110.66 39.0724 111.428C39.2347 111.7 39.418 111.951 39.5961 112.218C39.9313 112.742 40.2665 113.265 40.6436 113.752C40.8688 114.061 41.1098 114.354 41.3455 114.658C41.6911 115.092 42.0421 115.522 42.393 115.935C42.6496 116.234 42.9167 116.516 43.1839 116.804C43.5714 117.207 43.9643 117.6 44.3728 117.987C44.6399 118.244 44.8965 118.511 45.1951 118.752C45.656 119.16 46.1379 119.553 46.625 119.935C46.8711 120.123 47.112 120.327 47.3634 120.516C48.1072 121.039 48.8719 121.563 49.6627 122.086C49.8094 122.181 49.9718 122.254 50.1184 122.343C50.7836 122.73 51.454 123.097 52.1454 123.437C52.4439 123.584 52.7477 123.709 53.0515 123.845C53.6171 124.102 54.188 124.369 54.7746 124.568C55.1151 124.699 55.4607 124.819 55.8221 124.939C56.3983 125.133 56.9849 125.311 57.5767 125.463C57.9224 125.557 58.2733 125.657 58.6242 125.74C59.2632 125.892 59.9179 126.018 60.5779 126.133L60.7036 126.159C60.2741 133.9 59.89 141.646 59.5513 149.397C57.6844 145.56 55.0524 142.144 51.8168 139.36C48.5812 136.575 44.8103 134.482 40.7358 133.207C36.6613 131.932 32.369 131.504 28.1227 131.947C23.8764 132.391 19.7656 133.697 16.0427 135.786L21.5841 150.968L10.1714 139.974C4.05982 145.56 0.416523 153.342 0.0419082 161.611C-0.1041 164.512 0.163963 167.418 0.838021 170.243C2.27106 176.356 5.50846 181.897 10.1304 186.148C14.7523 190.399 20.5455 193.164 26.7587 194.084C32.9718 195.004 39.3183 194.038 44.9751 191.309C50.6318 188.58 55.3378 184.216 58.4828 178.782C58.4828 179.567 58.4305 180.352 58.4095 181.143C58.2 189.278 57.9381 199.403 61.9972 208.443C64.747 214.568 69.1675 219.542 73.5199 224.002C76.3639 226.907 79.3127 229.713 82.3348 232.43C85.3072 236.426 89.1889 239.656 93.6584 241.853C98.6236 245.68 103.767 249.277 109.083 252.596L112.404 254.658C115.389 256.506 118.448 258.407 121.444 260.38C120.92 260.328 120.396 260.27 119.873 260.244C113.226 259.935 106.652 261.746 101.103 265.416C95.5538 269.086 91.316 274.425 89.0022 280.661L108.591 296.591L87.0434 291.597C87.05 296.896 88.4002 302.106 90.9678 306.742C93.5354 311.378 97.2365 315.288 101.726 318.106C106.215 320.925 111.345 322.56 116.638 322.86C121.931 323.159 127.214 322.113 131.992 319.819C131.51 320.426 131.025 321.03 130.536 321.63C129.573 322.827 128.621 324.017 127.682 325.2C114.933 341.335 111.388 356.658 117.699 368.337L125.377 364.191C119.234 352.826 128.473 338.272 134.527 330.608C135.449 329.439 136.385 328.27 137.335 327.101C145.49 316.961 154.718 305.506 154.493 291.434C154.152 270.238 133.543 257.485 117.023 247.235Z" fill="#F2F2F2"/>
<path d="M420.284 183.368L423.579 181.321C423.893 181.127 424.202 180.918 424.516 180.719C417.504 179.512 411.11 175.956 406.387 170.637C401.664 165.317 398.891 158.549 398.526 151.446C398.16 144.343 400.223 137.327 404.375 131.551C408.527 125.775 414.522 121.582 421.374 119.662L421.211 132.577L428.308 118.532H428.397C432.51 118.34 436.62 118.959 440.493 120.355C444.366 121.75 447.926 123.895 450.97 126.666C454.013 129.437 456.481 132.78 458.232 136.504C459.983 140.228 460.983 144.261 461.174 148.371C461.206 148.968 461.174 149.56 461.174 150.151C463.641 147.335 465.888 144.314 467.37 141.006C470.371 134.31 470.429 126.719 470.193 117.5C469.722 99.2249 468.931 80.8133 467.904 62.4592C460.494 61.6345 453.619 58.1963 448.516 52.7618C443.413 47.3274 440.416 40.2527 440.061 32.808C440.02 31.85 440.035 30.9024 440.061 29.9653C440.061 29.7298 440.061 29.4942 440.098 29.2639C440.161 28.353 440.245 27.4525 440.386 26.5626C440.386 26.416 440.439 26.2746 440.465 26.1333C440.59 25.3794 440.748 24.6361 440.926 23.8979C440.994 23.6257 441.062 23.3744 441.135 23.076C441.355 22.2803 441.596 21.5055 441.879 20.715C441.973 20.4585 442.083 20.1915 442.183 19.9507C442.403 19.3801 442.644 18.8147 442.9 18.2598C443.036 17.9666 443.167 17.6735 443.314 17.3855C443.351 17.3123 443.377 17.2337 443.419 17.1604C446.727 10.6275 452.221 5.46033 458.947 2.55748C465.672 -0.345372 473.202 -0.800201 480.228 1.2721L480.019 18.0766L487.037 4.19325C492.81 7.49753 497.376 12.5597 500.067 18.6408C502.758 24.722 503.434 31.5036 501.996 37.9959H502.027C501.98 38.221 501.912 38.4304 501.86 38.6555C501.76 39.0691 501.655 39.4774 501.54 39.8857C501.394 40.4092 501.226 40.9327 501.053 41.4562C500.922 41.8384 500.796 42.2258 500.65 42.608C500.435 43.1629 500.194 43.7021 499.953 44.2413C499.812 44.5554 499.686 44.88 499.534 45.1888C499.136 46.002 498.703 46.7925 498.235 47.5603C498.073 47.8325 497.89 48.0838 497.712 48.3508C497.376 48.8743 497.041 49.3978 496.664 49.8847C496.439 50.1935 496.198 50.4867 495.962 50.7903C495.617 51.2248 495.266 51.6541 494.915 52.0677C494.658 52.3661 494.391 52.6488 494.124 52.9367C493.741 53.3398 493.343 53.7324 492.935 54.1198C492.668 54.3763 492.411 54.6433 492.113 54.8841C491.652 55.2924 491.17 55.6851 490.683 56.0672C490.437 56.2557 490.196 56.4599 489.944 56.6483C489.2 57.1718 488.436 57.6953 487.645 58.1927C487.498 58.2869 487.336 58.3602 487.189 58.4492C486.524 58.8366 485.854 59.203 485.162 59.5433C484.864 59.6899 484.56 59.8155 484.256 59.9516C483.691 60.2082 483.12 60.4751 482.533 60.6741C482.193 60.805 481.847 60.9254 481.486 61.0458C480.909 61.2395 480.323 61.4174 479.731 61.5693C479.385 61.6635 479.034 61.763 478.683 61.8467C478.044 61.9985 477.39 62.1242 476.73 62.2393H476.604C477.034 69.9837 477.418 77.7298 477.756 85.4777C479.623 81.6399 482.255 78.224 485.491 75.4398C488.726 72.6556 492.497 70.5619 496.572 69.2872C500.646 68.0126 504.939 67.5839 509.185 68.0274C513.431 68.471 517.542 69.7774 521.265 71.8666L515.724 87.0482L527.126 76.107C533.237 81.6925 536.881 89.4745 537.255 97.7434C537.401 100.644 537.133 103.551 536.459 106.376C535.026 112.488 531.789 118.029 527.167 122.28C522.545 126.531 516.752 129.296 510.539 130.217C504.325 131.137 497.979 130.17 492.322 127.442C486.665 124.713 481.959 120.349 478.814 114.914C478.814 115.7 478.872 116.485 478.888 117.275C479.097 125.411 479.359 135.535 475.3 144.576C472.55 150.701 468.13 155.674 463.777 160.135C460.933 163.04 457.984 165.846 454.962 168.563C451.99 172.558 448.108 175.788 443.639 177.986C438.674 181.813 433.53 185.409 428.214 188.728L424.893 190.791C421.908 192.639 418.849 194.539 415.853 196.513C416.377 196.46 416.901 196.403 417.425 196.377C424.072 196.067 430.645 197.878 436.194 201.549C441.743 205.219 445.981 210.557 448.295 216.793L428.706 232.724L450.254 227.729C450.247 233.028 448.897 238.239 446.329 242.875C443.762 247.51 440.061 251.42 435.572 254.239C431.082 257.057 425.952 258.693 420.659 258.992C415.366 259.292 410.084 258.246 405.305 255.951C405.787 256.559 406.272 257.162 406.761 257.763C407.725 258.96 408.676 260.15 409.615 261.333C422.364 277.467 425.91 292.79 419.598 304.47L411.92 300.324C418.064 288.958 408.825 274.405 402.77 266.741C401.848 265.572 400.912 264.403 399.963 263.233C391.818 253.119 382.59 241.655 382.815 227.593C383.155 206.37 403.744 193.618 420.284 183.368Z" fill="#F2F2F2"/>
<path d="M336.645 388C479.883 388 596 380.265 596 370.724C596 361.183 479.883 353.449 336.645 353.449C193.408 353.449 77.291 361.183 77.291 370.724C77.291 380.265 193.408 388 336.645 388Z" fill="#F2F2F2"/>
<path d="M345.356 371.248L252.027 370.054L252.299 367.662L256.814 328.195H338.777L344.806 367.662L345.267 370.651L345.356 371.248Z" fill="#2F2E41"/>
<path opacity="0.1" d="M345.267 370.651H298.689L252.027 370.054L252.299 367.662H344.806L345.267 370.651Z" fill="black"/>
<path d="M360.314 368.259H236.472V371.248H360.314V368.259Z" fill="#3F3D56"/>
<path d="M478.474 91.1473C478.479 90.125 478.282 89.1118 477.895 88.1655C477.508 87.2191 476.939 86.3583 476.219 85.632C475.499 84.9058 474.643 84.3283 473.7 83.9327C472.757 83.537 471.745 83.3309 470.722 83.3261H124.874C123.852 83.3309 122.84 83.537 121.897 83.9327C120.954 84.3283 120.098 84.9058 119.378 85.632C118.658 86.3583 118.089 87.2191 117.702 88.1655C117.315 89.1118 117.118 90.125 117.123 91.1473V300.685H478.474V91.1473Z" fill="#3F3D56"/>
<path d="M117.123 298.596V323.138C117.123 325.193 117.939 327.163 119.393 328.616C120.847 330.07 122.819 330.886 124.874 330.886H470.722C472.778 330.886 474.75 330.07 476.203 328.616C477.657 327.163 478.474 325.193 478.474 323.138V298.596H117.123Z" fill="#3F3D56"/>
<path d="M465.307 96.4818H132.076V284.844H465.307V96.4818Z" fill="#2F2E41"/>
<path d="M299.574 321.573C300.797 321.574 302.005 321.297 303.106 320.763C304.207 320.229 305.171 319.451 305.927 318.489C306.158 318.195 306.368 317.886 306.556 317.563L302.125 316.835L306.917 316.872C307.376 315.872 307.626 314.789 307.653 313.689C307.68 312.589 307.483 311.496 307.074 310.474L300.642 313.809L306.571 309.454C306.014 308.497 305.267 307.665 304.375 307.009C303.483 306.354 302.465 305.888 301.386 305.642C300.306 305.396 299.187 305.375 298.099 305.579C297.011 305.784 295.976 306.209 295.06 306.83C294.143 307.451 293.364 308.254 292.771 309.188C292.177 310.123 291.783 311.169 291.611 312.263C291.44 313.356 291.495 314.473 291.774 315.544C292.053 316.615 292.549 317.618 293.231 318.489C293.986 319.45 294.949 320.226 296.047 320.761C297.146 321.295 298.352 321.572 299.574 321.573Z" fill="#FF6B2C"/>
<path opacity="0.1" d="M307.666 330.886L344.9 368.259L339.186 330.886H307.666Z" fill="black"/>
<path d="M407.667 356.391L417.697 350.528C416.338 348.215 414.606 346.144 412.569 344.397L393.657 350.276L408.474 341.565C404.804 339.556 400.675 338.537 396.492 338.607C392.309 338.678 388.216 339.836 384.617 341.968C381.018 344.099 378.036 347.131 375.965 350.764C373.894 354.397 372.805 358.507 372.806 362.689C372.806 375.991 383.595 376.452 396.899 376.452C410.202 376.452 420.991 375.991 420.991 362.689C420.995 359.324 420.292 355.996 418.928 352.92L407.667 356.391Z" fill="#57B894"/>
<path opacity="0.1" d="M410.223 369.321C409.153 368.253 407.959 367.316 406.667 366.531C404.849 365.322 402.964 364.092 400.816 363.678C398.936 363.317 396.988 363.62 395.055 363.516C391.72 363.311 388.581 361.872 386.251 359.48C384.878 358.066 383.805 356.339 382.155 355.244C380.379 354.082 378.127 353.831 376.027 354.119C375.414 354.21 374.808 354.336 374.209 354.496C373.264 357.115 372.782 359.878 372.785 362.662C372.785 375.965 383.574 376.425 396.878 376.425C403.336 376.425 409.202 376.315 413.528 374.682L412.805 373.331C412.117 371.891 411.25 370.544 410.223 369.321Z" fill="black"/>
<path opacity="0.3" d="M157.955 169.149H146.877V172.51H157.955V169.149Z" fill="#FF6B2C"/>
<path opacity="0.3" d="M453.538 169.249H442.46V172.61H453.538V169.249Z" fill="#FF6B2C"/>
<path opacity="0.3" d="M158.054 192.775H146.977V196.136H158.054V192.775Z" fill="#FF6B2C"/>
<path opacity="0.3" d="M158.154 216.401H147.076V219.762H158.154V216.401Z" fill="#FF6B2C"/>
<path opacity="0.3" d="M158.254 240.021H147.176V243.382H158.254V240.021Z" fill="#FF6B2C"/>
<g opacity="0.2">
<path opacity="0.2" d="M161.097 170.767H157.955V170.898H161.097V170.767Z" fill="#F2F2F2"/>
<path opacity="0.2" d="M432.944 170.898H426.768V170.767H432.944V170.898ZM420.588 170.898H414.413V170.767H420.588V170.898ZM408.233 170.898H402.052V170.767H408.233V170.898ZM395.877 170.898H389.697V170.767H395.877V170.898ZM383.522 170.898H377.341V170.767H383.522V170.898ZM371.161 170.898H364.986V170.767H371.161V170.898ZM358.806 170.898H352.625V170.767H358.806V170.898ZM346.45 170.898H340.27V170.767H346.45V170.898ZM334.095 170.898H327.914V170.767H334.095V170.898ZM321.734 170.898H315.559V170.767H321.734V170.898ZM309.379 170.898H303.198V170.767H309.379V170.898ZM297.023 170.898H290.843V170.767H297.023V170.898ZM284.668 170.898H278.487V170.767H284.668V170.898ZM272.307 170.898H266.132V170.767H272.307V170.898ZM259.952 170.898H253.776V170.767H259.952V170.898ZM247.596 170.898H241.437V170.767H247.617L247.596 170.898ZM235.241 170.898H229.06V170.767H235.241V170.898ZM222.88 170.898H216.705V170.767H222.88V170.898ZM210.525 170.898H204.349V170.767H210.535L210.525 170.898ZM198.169 170.898H191.989V170.767H198.169V170.898ZM185.814 170.898H179.633V170.767H185.814V170.898ZM173.453 170.898H167.278V170.767H173.453V170.898Z" fill="#F2F2F2"/>
<path opacity="0.2" d="M442.267 170.767H439.124V170.898H442.267V170.767Z" fill="#F2F2F2"/>
<path opacity="0.2" d="M161.097 170.767H157.955V170.898H161.097V170.767Z" fill="#F2F2F2"/>
<path opacity="0.2" d="M432.944 170.898H426.768V170.767H432.944V170.898ZM420.588 170.898H414.413V170.767H420.588V170.898ZM408.233 170.898H402.052V170.767H408.233V170.898ZM395.877 170.898H389.697V170.767H395.877V170.898ZM383.522 170.898H377.341V170.767H383.522V170.898ZM371.161 170.898H364.986V170.767H371.161V170.898ZM358.806 170.898H352.625V170.767H358.806V170.898ZM346.45 170.898H340.27V170.767H346.45V170.898ZM334.095 170.898H327.914V170.767H334.095V170.898ZM321.734 170.898H315.559V170.767H321.734V170.898ZM309.379 170.898H303.198V170.767H309.379V170.898ZM297.023 170.898H290.843V170.767H297.023V170.898ZM284.668 170.898H278.487V170.767H284.668V170.898ZM272.307 170.898H266.132V170.767H272.307V170.898ZM259.952 170.898H253.776V170.767H259.952V170.898ZM247.596 170.898H241.437V170.767H247.617L247.596 170.898ZM235.241 170.898H229.06V170.767H235.241V170.898ZM222.88 170.898H216.705V170.767H222.88V170.898ZM210.525 170.898H204.349V170.767H210.535L210.525 170.898ZM198.169 170.898H191.989V170.767H198.169V170.898ZM185.814 170.898H179.633V170.767H185.814V170.898ZM173.453 170.898H167.278V170.767H173.453V170.898Z" fill="#F2F2F2"/>
<path opacity="0.2" d="M442.267 170.767H439.124V170.898H442.267V170.767Z" fill="#F2F2F2"/>
</g>
<path opacity="0.3" d="M157.955 145.592H146.877V148.953H157.955V145.592Z" fill="#FF6B2C"/>
<path opacity="0.3" d="M453.538 145.691H442.46V149.052H453.538V145.691Z" fill="#FF6B2C"/>
<g opacity="0.2">
<path opacity="0.2" d="M161.097 147.209H157.955V147.34H161.097V147.209Z" fill="#F2F2F2"/>
<path opacity="0.2" d="M432.944 147.34H426.768V147.209H432.944V147.34ZM420.588 147.34H414.413V147.209H420.588V147.34ZM408.233 147.34H402.052V147.209H408.233V147.34ZM395.877 147.34H389.697V147.209H395.877V147.34ZM383.522 147.34H377.341V147.209H383.522V147.34ZM371.161 147.34H364.986V147.209H371.161V147.34ZM358.806 147.34H352.625V147.209H358.806V147.34ZM346.45 147.34H340.27V147.209H346.45V147.34ZM334.095 147.34H327.914V147.209H334.095V147.34ZM321.734 147.34H315.559V147.209H321.734V147.34ZM309.379 147.34H303.198V147.209H309.379V147.34ZM297.023 147.34H290.843V147.209H297.023V147.34ZM284.668 147.34H278.487V147.209H284.668V147.34ZM272.307 147.34H266.132V147.209H272.307V147.34ZM259.952 147.34H253.776V147.209H259.952V147.34ZM247.596 147.34H241.437V147.209H247.617L247.596 147.34ZM235.241 147.34H229.06V147.209H235.241V147.34ZM222.88 147.34H216.705V147.209H222.88V147.34ZM210.525 147.34H204.349V147.209H210.535L210.525 147.34ZM198.169 147.34H191.989V147.209H198.169V147.34ZM185.814 147.34H179.633V147.209H185.814V147.34ZM173.453 147.34H167.278V147.209H173.453V147.34Z" fill="#F2F2F2"/>
<path opacity="0.2" d="M442.267 147.209H439.124V147.34H442.267V147.209Z" fill="#F2F2F2"/>
</g>
<path opacity="0.3" d="M453.538 192.775H442.46V196.136H453.538V192.775Z" fill="#FF6B2C"/>
<g opacity="0.2">
<path opacity="0.2" d="M161.097 194.294H157.955V194.425H161.097V194.294Z" fill="#F2F2F2"/>
<path opacity="0.2" d="M432.944 194.419H426.768V194.288H432.944V194.419ZM420.588 194.419H414.413V194.288H420.588V194.419ZM408.233 194.419H402.052V194.288H408.233V194.419ZM395.877 194.419H389.697V194.288H395.877V194.419ZM383.522 194.419H377.341V194.288H383.522V194.419ZM371.161 194.419H364.986V194.288H371.161V194.419ZM358.806 194.419H352.625V194.288H358.806V194.419ZM346.45 194.419H340.27V194.288H346.45V194.419ZM334.095 194.419H327.914V194.288H334.095V194.419ZM321.734 194.419H315.559V194.288H321.734V194.419ZM309.379 194.419H303.198V194.288H309.379V194.419ZM297.023 194.419H290.843V194.288H297.023V194.419ZM284.668 194.419H278.487V194.288H284.668V194.419ZM272.307 194.419H266.132V194.288H272.307V194.419ZM259.952 194.419H253.776V194.288H259.952V194.419ZM247.596 194.419H241.437V194.288H247.617L247.596 194.419ZM235.241 194.419H229.06V194.288H235.241V194.419ZM222.88 194.419H216.705V194.288H222.88V194.419ZM210.525 194.419H204.349V194.288H210.535L210.525 194.419ZM198.169 194.419H191.989V194.288H198.169V194.419ZM185.814 194.419H179.633V194.288H185.814V194.419ZM173.453 194.419H167.278V194.288H173.453V194.419Z" fill="#F2F2F2"/>
<path opacity="0.2" d="M442.267 194.293H439.124V194.424H442.267V194.293Z" fill="#F2F2F2"/>
<path opacity="0.2" d="M161.097 194.294H157.955V194.425H161.097V194.294Z" fill="#F2F2F2"/>
<path opacity="0.2" d="M432.944 194.419H426.768V194.288H432.944V194.419ZM420.588 194.419H414.413V194.288H420.588V194.419ZM408.233 194.419H402.052V194.288H408.233V194.419ZM395.877 194.419H389.697V194.288H395.877V194.419ZM383.522 194.419H377.341V194.288H383.522V194.419ZM371.161 194.419H364.986V194.288H371.161V194.419ZM358.806 194.419H352.625V194.288H358.806V194.419ZM346.45 194.419H340.27V194.288H346.45V194.419ZM334.095 194.419H327.914V194.288H334.095V194.419ZM321.734 194.419H315.559V194.288H321.734V194.419ZM309.379 194.419H303.198V194.288H309.379V194.419ZM297.023 194.419H290.843V194.288H297.023V194.419ZM284.668 194.419H278.487V194.288H284.668V194.419ZM272.307 194.419H266.132V194.288H272.307V194.419ZM259.952 194.419H253.776V194.288H259.952V194.419ZM247.596 194.419H241.437V194.288H247.617L247.596 194.419ZM235.241 194.419H229.06V194.288H235.241V194.419ZM222.88 194.419H216.705V194.288H222.88V194.419ZM210.525 194.419H204.349V194.288H210.535L210.525 194.419ZM198.169 194.419H191.989V194.288H198.169V194.419ZM185.814 194.419H179.633V194.288H185.814V194.419ZM173.453 194.419H167.278V194.288H173.453V194.419Z" fill="#F2F2F2"/>
<path opacity="0.2" d="M442.267 194.293H439.124V194.424H442.267V194.293Z" fill="#F2F2F2"/>
</g>
<path opacity="0.3" d="M453.538 216.301H442.46V219.662H453.538V216.301Z" fill="#FF6B2C"/>
<g opacity="0.2">
<path opacity="0.2" d="M161.097 217.814H157.955V217.945H161.097V217.814Z" fill="#F2F2F2"/>
<path opacity="0.2" d="M432.944 217.945H426.768V217.814H432.944V217.945ZM420.588 217.945H414.413V217.814H420.588V217.945ZM408.233 217.945H402.052V217.814H408.233V217.945ZM395.877 217.945H389.697V217.814H395.877V217.945ZM383.522 217.945H377.341V217.814H383.522V217.945ZM371.161 217.945H364.986V217.814H371.161V217.945ZM358.806 217.945H352.625V217.814H358.806V217.945ZM346.45 217.945H340.27V217.814H346.45V217.945ZM334.095 217.945H327.914V217.814H334.095V217.945ZM321.734 217.945H315.559V217.814H321.734V217.945ZM309.379 217.945H303.198V217.814H309.379V217.945ZM297.023 217.945H290.843V217.814H297.023V217.945ZM284.668 217.945H278.487V217.814H284.668V217.945ZM272.307 217.945H266.132V217.814H272.307V217.945ZM259.952 217.945H253.776V217.814H259.952V217.945ZM247.596 217.945H241.437V217.814H247.617L247.596 217.945ZM235.241 217.945H229.06V217.814H235.241V217.945ZM222.88 217.945H216.705V217.814H222.88V217.945ZM210.525 217.945H204.349V217.814H210.535L210.525 217.945ZM198.169 217.945H191.989V217.814H198.169V217.945ZM185.814 217.945H179.633V217.814H185.814V217.945ZM173.453 217.945H167.278V217.814H173.453V217.945Z" fill="#F2F2F2"/>
<path opacity="0.2" d="M442.267 217.814H439.124V217.945H442.267V217.814Z" fill="#F2F2F2"/>
<path opacity="0.2" d="M161.097 217.814H157.955V217.945H161.097V217.814Z" fill="#F2F2F2"/>
<path opacity="0.2" d="M432.944 217.945H426.768V217.814H432.944V217.945ZM420.588 217.945H414.413V217.814H420.588V217.945ZM408.233 217.945H402.052V217.814H408.233V217.945ZM395.877 217.945H389.697V217.814H395.877V217.945ZM383.522 217.945H377.341V217.814H383.522V217.945ZM371.161 217.945H364.986V217.814H371.161V217.945ZM358.806 217.945H352.625V217.814H358.806V217.945ZM346.45 217.945H340.27V217.814H346.45V217.945ZM334.095 217.945H327.914V217.814H334.095V217.945ZM321.734 217.945H315.559V217.814H321.734V217.945ZM309.379 217.945H303.198V217.814H309.379V217.945ZM297.023 217.945H290.843V217.814H297.023V217.945ZM284.668 217.945H278.487V217.814H284.668V217.945ZM272.307 217.945H266.132V217.814H272.307V217.945ZM259.952 217.945H253.776V217.814H259.952V217.945ZM247.596 217.945H241.437V217.814H247.617L247.596 217.945ZM235.241 217.945H229.06V217.814H235.241V217.945ZM222.88 217.945H216.705V217.814H222.88V217.945ZM210.525 217.945H204.349V217.814H210.535L210.525 217.945ZM198.169 217.945H191.989V217.814H198.169V217.945ZM185.814 217.945H179.633V217.814H185.814V217.945ZM173.453 217.945H167.278V217.814H173.453V217.945Z" fill="#F2F2F2"/>
<path opacity="0.2" d="M442.267 217.814H439.124V217.945H442.267V217.814Z" fill="#F2F2F2"/>
</g>
<path opacity="0.3" d="M453.538 239.822H442.46V243.183H453.538V239.822Z" fill="#FF6B2C"/>
<g opacity="0.2">
<path opacity="0.2" d="M161.097 241.34H157.955V241.471H161.097V241.34Z" fill="#F2F2F2"/>
<path opacity="0.2" d="M432.944 241.471H426.768V241.34H432.944V241.471ZM420.588 241.471H414.413V241.34H420.588V241.471ZM408.233 241.471H402.052V241.34H408.233V241.471ZM395.877 241.471H389.697V241.34H395.877V241.471ZM383.522 241.471H377.341V241.34H383.522V241.471ZM371.161 241.471H364.986V241.34H371.161V241.471ZM358.806 241.471H352.625V241.34H358.806V241.471ZM346.45 241.471H340.27V241.34H346.45V241.471ZM334.095 241.471H327.914V241.34H334.095V241.471ZM321.734 241.471H315.559V241.34H321.734V241.471ZM309.379 241.471H303.198V241.34H309.379V241.471ZM297.023 241.471H290.843V241.34H297.023V241.471ZM284.668 241.471H278.487V241.34H284.668V241.471ZM272.307 241.471H266.132V241.34H272.307V241.471ZM259.952 241.471H253.776V241.34H259.952V241.471ZM247.596 241.471H241.437V241.34H247.617L247.596 241.471ZM235.241 241.471H229.06V241.34H235.241V241.471ZM222.88 241.471H216.705V241.34H222.88V241.471ZM210.525 241.471H204.349V241.34H210.535L210.525 241.471ZM198.169 241.471H191.989V241.34H198.169V241.471ZM185.814 241.471H179.633V241.34H185.814V241.471ZM173.453 241.471H167.278V241.34H173.453V241.471Z" fill="#F2F2F2"/>
<path opacity="0.2" d="M442.267 241.34H439.124V241.471H442.267V241.34Z" fill="#F2F2F2"/>
<path opacity="0.2" d="M161.097 241.34H157.955V241.471H161.097V241.34Z" fill="#F2F2F2"/>
<path opacity="0.2" d="M432.944 241.471H426.768V241.34H432.944V241.471ZM420.588 241.471H414.413V241.34H420.588V241.471ZM408.233 241.471H402.052V241.34H408.233V241.471ZM395.877 241.471H389.697V241.34H395.877V241.471ZM383.522 241.471H377.341V241.34H383.522V241.471ZM371.161 241.471H364.986V241.34H371.161V241.471ZM358.806 241.471H352.625V241.34H358.806V241.471ZM346.45 241.471H340.27V241.34H346.45V241.471ZM334.095 241.471H327.914V241.34H334.095V241.471ZM321.734 241.471H315.559V241.34H321.734V241.471ZM309.379 241.471H303.198V241.34H309.379V241.471ZM297.023 241.471H290.843V241.34H297.023V241.471ZM284.668 241.471H278.487V241.34H284.668V241.471ZM272.307 241.471H266.132V241.34H272.307V241.471ZM259.952 241.471H253.776V241.34H259.952V241.471ZM247.596 241.471H241.437V241.34H247.617L247.596 241.471ZM235.241 241.471H229.06V241.34H235.241V241.471ZM222.88 241.471H216.705V241.34H222.88V241.471ZM210.525 241.471H204.349V241.34H210.535L210.525 241.471ZM198.169 241.471H191.989V241.34H198.169V241.471ZM185.814 241.471H179.633V241.34H185.814V241.471ZM173.453 241.471H167.278V241.34H173.453V241.471Z" fill="#F2F2F2"/>
<path opacity="0.2" d="M442.267 241.34H439.124V241.471H442.267V241.34Z" fill="#F2F2F2"/>
</g>
<path d="M194.068 147.372V241.702" stroke="#F2F2F2" stroke-width="0.1" stroke-miterlimit="10"/>
<path d="M232.302 147.372V241.702" stroke="#F2F2F2" stroke-width="0.1" stroke-miterlimit="10"/>
<path d="M270.537 147.372V241.702" stroke="#F2F2F2" stroke-width="0.1" stroke-miterlimit="10"/>
<path d="M308.771 147.372V241.702" stroke="#F2F2F2" stroke-width="0.1" stroke-miterlimit="10"/>
<path d="M347.005 147.372V241.702" stroke="#F2F2F2" stroke-width="0.1" stroke-miterlimit="10"/>
<path d="M385.24 147.372V241.702" stroke="#F2F2F2" stroke-width="0.1" stroke-miterlimit="10"/>
<path d="M423.474 147.372V241.702" stroke="#F2F2F2" stroke-width="0.1" stroke-miterlimit="10"/>
<path opacity="0.3" d="M431.744 141.006L427.371 145.56C427.282 145.655 427.208 145.763 427.151 145.88L424.438 151.465C424.33 151.69 424.157 151.876 423.941 152.001C423.725 152.125 423.476 152.181 423.228 152.162L422.358 152.094C422.106 152.076 421.865 151.981 421.669 151.821C421.472 151.662 421.329 151.447 421.259 151.204L420.421 148.303C420.347 148.05 420.195 147.826 419.986 147.665C419.777 147.503 419.522 147.413 419.258 147.407C418.994 147.4 418.735 147.478 418.518 147.629C418.301 147.78 418.139 147.996 418.053 148.246L416.644 152.371C416.561 152.617 416.402 152.831 416.191 152.982C415.979 153.133 415.726 153.214 415.466 153.214H410.087C409.792 153.213 409.506 153.107 409.282 152.915C409.057 152.723 408.908 152.458 408.861 152.167L407.342 142.665C407.302 142.405 407.18 142.165 406.994 141.979C406.808 141.793 406.568 141.671 406.308 141.63C406.048 141.589 405.782 141.632 405.548 141.752C405.314 141.872 405.124 142.064 405.006 142.299L397.218 157.664C397.138 157.823 397.024 157.963 396.885 158.074C396.746 158.185 396.584 158.265 396.411 158.308C396.238 158.351 396.058 158.357 395.883 158.324C395.707 158.292 395.541 158.222 395.395 158.119L390.765 154.852C390.513 154.675 390.204 154.597 389.897 154.634C389.591 154.671 389.309 154.819 389.105 155.051L387.351 157.077C387.299 157.137 387.253 157.202 387.214 157.271L382.532 165.37C382.413 165.577 382.236 165.746 382.023 165.854C381.81 165.963 381.57 166.008 381.333 165.982L378.478 165.699C378.279 165.68 378.077 165.709 377.891 165.783L375.335 166.804C375.039 166.916 374.712 166.91 374.42 166.788C374.128 166.667 373.893 166.438 373.764 166.15L373.204 164.867C373.103 164.637 372.935 164.443 372.722 164.311C372.509 164.178 372.26 164.113 372.01 164.124L369.087 164.26C368.906 164.267 368.729 164.315 368.569 164.399C368.409 164.483 368.269 164.602 368.16 164.747L367.332 165.825C367.196 166.003 367.015 166.141 366.806 166.223C366.598 166.306 366.372 166.332 366.15 166.296C365.929 166.261 365.722 166.166 365.55 166.022C365.378 165.879 365.248 165.691 365.175 165.479L364.127 162.522C364.062 162.338 363.955 162.171 363.814 162.037C363.674 161.902 363.503 161.802 363.316 161.745C363.129 161.689 362.932 161.677 362.74 161.711C362.548 161.745 362.366 161.823 362.21 161.941L357.234 165.668L351.735 170.102C351.547 170.253 351.319 170.346 351.079 170.37C350.84 170.394 350.598 170.348 350.384 170.238L346.115 168.024C345.886 167.906 345.626 167.863 345.371 167.898L336.724 169.107C336.473 169.141 336.239 169.25 336.052 169.421C335.865 169.591 335.734 169.814 335.677 170.06L334.142 176.724C334.094 176.932 333.993 177.124 333.85 177.282C333.706 177.44 333.524 177.558 333.321 177.625C333.118 177.691 332.902 177.705 332.692 177.664C332.483 177.622 332.288 177.528 332.125 177.389C331.982 177.267 331.812 177.178 331.629 177.131C331.446 177.084 331.255 177.078 331.07 177.116C330.885 177.153 330.711 177.232 330.561 177.346C330.41 177.461 330.288 177.608 330.203 177.777L329.025 180.138C328.936 180.312 328.808 180.464 328.651 180.58C328.494 180.696 328.311 180.774 328.119 180.808L325.442 181.253C325.27 181.283 325.106 181.349 324.96 181.446L320.744 184.252C320.541 184.389 320.302 184.462 320.058 184.462H318.083C317.841 184.462 317.603 184.392 317.4 184.258C317.197 184.125 317.038 183.936 316.942 183.713L316.418 182.462C316.351 182.31 316.255 182.174 316.134 182.06C316.014 181.946 315.872 181.857 315.717 181.799C315.561 181.741 315.396 181.715 315.23 181.722C315.065 181.728 314.902 181.768 314.752 181.839L310.175 183.98C309.99 184.067 309.787 184.107 309.584 184.097C309.38 184.087 309.182 184.027 309.007 183.923L306.912 182.661C306.719 182.545 306.498 182.484 306.273 182.483H301.648C301.404 182.484 301.165 182.557 300.962 182.692L296.348 185.755C296.17 185.873 295.964 185.943 295.752 185.959C295.539 185.974 295.326 185.935 295.132 185.844L293.037 184.854C292.793 184.74 292.519 184.709 292.255 184.765C291.991 184.82 291.753 184.96 291.576 185.163L290.581 186.299C290.451 186.45 290.286 186.567 290.101 186.64C289.916 186.713 289.716 186.741 289.518 186.72C289.32 186.7 289.13 186.632 288.964 186.522C288.798 186.412 288.661 186.264 288.564 186.09L288.266 185.566C288.185 185.422 288.076 185.295 287.945 185.193C287.814 185.091 287.664 185.017 287.504 184.974C287.344 184.931 287.177 184.92 287.013 184.943C286.849 184.966 286.691 185.021 286.548 185.106L282.918 187.257C282.73 187.365 282.517 187.422 282.3 187.422C282.083 187.422 281.87 187.365 281.682 187.257L280.184 186.425C280.015 186.33 279.826 186.276 279.632 186.268C279.438 186.259 279.245 186.297 279.069 186.378L277.644 187.027C277.484 187.099 277.31 187.136 277.135 187.136C276.959 187.137 276.785 187.1 276.625 187.029C276.464 186.958 276.321 186.854 276.203 186.724C276.085 186.593 275.996 186.44 275.942 186.273L275.02 183.53C274.942 183.278 274.784 183.058 274.571 182.903C274.358 182.747 274.1 182.664 273.836 182.666H272.496C272.285 182.667 272.077 182.613 271.893 182.509L266.745 179.687C266.535 179.574 266.297 179.523 266.06 179.541C265.822 179.559 265.595 179.644 265.404 179.787L261.628 182.614C261.413 182.775 261.152 182.861 260.884 182.86H256.133C255.889 182.86 255.65 182.933 255.447 183.069L254.557 183.661C254.41 183.759 254.245 183.825 254.071 183.854C253.897 183.883 253.719 183.875 253.548 183.83C253.378 183.785 253.219 183.704 253.082 183.592C252.945 183.481 252.834 183.342 252.755 183.184L252.54 182.76C252.439 182.553 252.28 182.378 252.084 182.256C251.888 182.134 251.661 182.069 251.43 182.069H249.047C248.858 182.07 248.671 182.113 248.501 182.197C248.332 182.28 248.183 182.401 248.068 182.551L246.591 184.441C246.468 184.598 246.31 184.723 246.129 184.805C245.948 184.888 245.75 184.926 245.551 184.916C245.353 184.907 245.159 184.849 244.987 184.749C244.815 184.649 244.67 184.509 244.564 184.341L244.145 183.687C243.972 183.413 243.698 183.218 243.383 183.143C243.067 183.069 242.735 183.121 242.458 183.289L241.232 184.022C241.024 184.147 240.783 184.208 240.54 184.197C240.297 184.187 240.063 184.106 239.865 183.964L234.926 180.389C234.838 180.326 234.743 180.274 234.644 180.232L230.784 178.75C230.483 178.641 230.152 178.652 229.859 178.781C229.566 178.909 229.335 179.146 229.212 179.441L226.525 185.985C226.486 186.077 226.46 186.174 226.447 186.273L225.577 192.168C225.539 192.417 225.426 192.649 225.253 192.833L223.414 194.806C223.224 195.007 222.972 195.14 222.698 195.182C222.424 195.225 222.143 195.176 221.901 195.042L218.711 193.272C218.552 193.183 218.376 193.131 218.194 193.117C218.013 193.104 217.831 193.131 217.661 193.196C217.491 193.261 217.338 193.362 217.211 193.493C217.085 193.624 216.989 193.781 216.93 193.953L214.908 199.863C214.863 199.993 214.84 200.129 214.84 200.266V203.994C214.84 204.235 214.769 204.472 214.635 204.673C214.502 204.875 214.313 205.034 214.091 205.13L210.849 206.564C210.669 206.642 210.473 206.675 210.277 206.663C210.082 206.65 209.892 206.591 209.723 206.491L207.282 205.056C207.039 204.914 206.755 204.859 206.476 204.899L202.197 205.512C201.952 205.547 201.702 205.508 201.48 205.399C201.258 205.291 201.073 205.119 200.95 204.905L200.227 203.669C200.071 203.403 199.821 203.205 199.526 203.114L197.582 202.507C197.356 202.435 197.113 202.43 196.884 202.492C196.654 202.554 196.448 202.681 196.289 202.858L193.591 205.852C193.379 206.087 193.085 206.233 192.769 206.26L188.789 206.595C188.604 206.606 188.425 206.66 188.265 206.753L181.325 210.742C181.108 210.865 180.86 210.92 180.612 210.9C180.363 210.881 180.126 210.787 179.932 210.632L177.962 209.061C177.742 208.886 177.469 208.79 177.187 208.789H169.729C169.543 208.79 169.359 208.748 169.191 208.667C169.023 208.587 168.876 208.469 168.76 208.323L166.88 205.978C166.767 205.838 166.625 205.724 166.464 205.644C166.303 205.564 166.126 205.52 165.947 205.515C165.767 205.51 165.588 205.544 165.423 205.615C165.257 205.686 165.109 205.792 164.989 205.925L162.726 208.438C162.522 208.665 162.408 208.96 162.407 209.265V240.487C162.407 240.816 162.538 241.132 162.77 241.364C163.003 241.597 163.319 241.728 163.648 241.728H432.718C432.882 241.728 433.044 241.696 433.195 241.633C433.346 241.57 433.483 241.478 433.598 241.363C433.713 241.247 433.805 241.109 433.867 240.958C433.929 240.807 433.96 240.645 433.96 240.482L433.886 141.89C433.89 141.641 433.819 141.396 433.681 141.187C433.544 140.979 433.347 140.816 433.116 140.721C432.885 140.625 432.631 140.601 432.386 140.652C432.142 140.703 431.918 140.826 431.744 141.006Z" fill="#FF6B2C"/>
<path opacity="0.3" d="M431.503 181.436L427.449 184.137C427.307 184.233 427.182 184.352 427.078 184.488L424.558 187.812C424.406 188.009 424.208 188.167 423.982 188.273C423.756 188.378 423.509 188.429 423.259 188.419L422.437 188.378C422.155 188.363 421.882 188.272 421.648 188.113C421.414 187.954 421.229 187.734 421.112 187.477L420.588 186.362C420.471 186.1 420.283 185.876 420.045 185.716C419.806 185.557 419.528 185.467 419.241 185.457C418.954 185.448 418.671 185.52 418.423 185.664C418.175 185.808 417.972 186.019 417.838 186.273L416.791 188.278C416.66 188.524 416.465 188.73 416.226 188.873C415.987 189.016 415.713 189.091 415.434 189.09H410.239C409.896 189.091 409.563 188.977 409.293 188.766C409.023 188.556 408.833 188.26 408.751 187.927L407.505 182.938C407.435 182.66 407.289 182.407 407.084 182.208C406.878 182.008 406.62 181.871 406.34 181.81C406.059 181.75 405.768 181.769 405.498 181.866C405.228 181.962 404.991 182.133 404.813 182.357L397.323 191.822C397.112 192.091 396.816 192.282 396.483 192.362C396.151 192.443 395.801 192.409 395.49 192.267L390.676 190.095C390.424 189.977 390.145 189.93 389.868 189.958C389.591 189.987 389.328 190.09 389.105 190.257L387.382 191.529C387.3 191.591 387.224 191.661 387.157 191.738L382.611 196.769C382.458 196.945 382.267 197.083 382.053 197.173C381.839 197.264 381.607 197.305 381.374 197.293L378.405 197.104C378.243 197.095 378.081 197.109 377.923 197.146L375.246 197.832C374.941 197.912 374.619 197.895 374.324 197.784C374.028 197.674 373.774 197.475 373.597 197.214L373.293 196.764C373.148 196.553 372.952 196.381 372.723 196.265C372.494 196.149 372.24 196.092 371.983 196.099L368.998 196.188C368.654 196.194 368.322 196.32 368.061 196.544L367.327 197.157C367.154 197.302 366.95 197.408 366.731 197.465C366.511 197.523 366.282 197.531 366.059 197.49C365.836 197.448 365.625 197.358 365.442 197.225C365.258 197.092 365.106 196.921 364.997 196.722L364.221 195.319C364.032 194.976 363.719 194.719 363.346 194.599C362.973 194.479 362.569 194.506 362.215 194.675L357.193 197.089L351.635 199.957C351.454 200.051 351.256 200.107 351.053 200.122C350.849 200.137 350.645 200.112 350.452 200.046L346.026 198.581C345.827 198.515 345.617 198.49 345.408 198.507L336.839 199.235C336.549 199.265 336.272 199.376 336.041 199.554C335.81 199.733 335.633 199.972 335.53 200.245L334.289 203.711C334.214 203.919 334.094 204.109 333.939 204.267C333.784 204.425 333.596 204.547 333.39 204.626C333.183 204.704 332.961 204.737 332.74 204.722C332.519 204.707 332.304 204.644 332.11 204.538L332.057 204.512C331.739 204.336 331.369 204.279 331.012 204.352C330.656 204.425 330.337 204.623 330.114 204.91L329.14 206.156C328.881 206.48 328.505 206.689 328.093 206.737L325.411 207.025C325.26 207.04 325.111 207.077 324.971 207.135L320.723 208.951C320.532 209.03 320.328 209.071 320.121 209.072H318.078C317.828 209.072 317.582 209.01 317.361 208.894C317.141 208.777 316.951 208.608 316.811 208.402L316.517 207.972C316.333 207.704 316.069 207.501 315.762 207.393C315.455 207.285 315.122 207.277 314.81 207.37L310.049 208.81C309.722 208.908 309.372 208.895 309.054 208.773L306.844 207.925C306.677 207.859 306.499 207.824 306.32 207.82H301.575C301.369 207.82 301.166 207.863 300.978 207.946L296.264 209.946C295.932 210.089 295.561 210.109 295.216 210.004L292.885 209.307C292.659 209.24 292.419 209.225 292.186 209.265C291.952 209.305 291.731 209.398 291.539 209.538L290.518 210.286C290.209 210.512 289.826 210.615 289.445 210.573C289.064 210.531 288.713 210.349 288.46 210.061L288.308 209.888C288.102 209.653 287.829 209.487 287.526 209.411C287.222 209.335 286.903 209.354 286.611 209.464L282.814 210.914C282.475 211.038 282.104 211.038 281.766 210.914L280.101 210.318C279.796 210.213 279.467 210.203 279.158 210.291L277.587 210.747C277.242 210.846 276.875 210.822 276.546 210.678C276.218 210.535 275.951 210.281 275.79 209.962L275.203 208.784C275.076 208.529 274.88 208.315 274.637 208.166C274.395 208.016 274.116 207.936 273.831 207.936H272.469C272.291 207.939 272.114 207.91 271.946 207.852L266.661 205.999C266.471 205.931 266.269 205.901 266.068 205.912C265.867 205.923 265.669 205.974 265.488 206.062L261.628 207.915C261.42 208.013 261.193 208.065 260.962 208.067H256.086C255.88 208.067 255.675 208.108 255.484 208.187L254.489 208.616C254.177 208.748 253.831 208.774 253.504 208.69C253.176 208.606 252.886 208.416 252.677 208.15C252.533 207.966 252.35 207.817 252.14 207.714C251.931 207.612 251.7 207.559 251.467 207.559H249.005C248.65 207.558 248.306 207.68 248.031 207.904L246.601 209.077C246.307 209.32 245.933 209.444 245.551 209.425C245.17 209.406 244.81 209.244 244.543 208.972L244.218 208.648C244.008 208.437 243.741 208.291 243.45 208.229C243.159 208.166 242.856 208.19 242.579 208.297L241.154 208.847C240.764 208.992 240.333 208.977 239.955 208.805L234.942 206.48C234.854 206.438 234.76 206.406 234.665 206.386L230.731 205.418C230.421 205.34 230.094 205.362 229.797 205.481C229.5 205.599 229.248 205.808 229.076 206.077L226.604 209.93C226.509 210.078 226.44 210.241 226.4 210.412L225.651 213.684C225.561 214.057 225.337 214.385 225.022 214.605L223.388 215.725C223.189 215.862 222.96 215.95 222.721 215.981C222.481 216.012 222.238 215.985 222.011 215.903L218.648 214.71C218.296 214.586 217.912 214.594 217.566 214.733C217.22 214.871 216.936 215.131 216.768 215.464L214.997 218.772C214.881 218.995 214.82 219.243 214.819 219.495V220.987C214.818 221.322 214.707 221.647 214.504 221.914C214.301 222.18 214.016 222.373 213.693 222.463L210.75 223.28C210.437 223.368 210.105 223.353 209.802 223.238L207.235 222.269C207.019 222.186 206.786 222.154 206.554 222.175L202.129 222.578C201.893 222.601 201.655 222.568 201.434 222.483C201.213 222.397 201.015 222.262 200.856 222.086L200.332 221.505C200.114 221.26 199.821 221.095 199.499 221.034L197.483 220.625C197.277 220.586 197.065 220.589 196.86 220.633C196.655 220.677 196.461 220.762 196.289 220.882L193.633 222.772C193.396 222.939 193.117 223.037 192.827 223.054L188.757 223.269C188.603 223.279 188.452 223.31 188.307 223.363L181.241 225.981C181.043 226.056 180.832 226.088 180.621 226.075C180.409 226.063 180.203 226.006 180.016 225.908L177.973 224.861C177.757 224.751 177.519 224.693 177.276 224.693H169.682C169.331 224.693 168.991 224.573 168.718 224.353L166.88 222.882C166.619 222.673 166.298 222.555 165.964 222.546C165.63 222.536 165.303 222.636 165.031 222.829L163.062 224.232C162.862 224.375 162.7 224.562 162.588 224.78C162.476 224.998 162.417 225.239 162.417 225.484V240.199C162.417 240.606 162.579 240.996 162.867 241.284C163.155 241.571 163.545 241.733 163.952 241.733H432.425C432.832 241.733 433.222 241.571 433.51 241.284C433.798 240.996 433.96 240.606 433.96 240.199L433.886 182.734C433.89 182.455 433.818 182.18 433.677 181.939C433.536 181.699 433.332 181.501 433.086 181.367C432.841 181.234 432.564 181.169 432.285 181.182C432.006 181.194 431.736 181.282 431.503 181.436Z" fill="#FF6B2C"/>
<path d="M432.587 184.713C434.612 184.713 436.254 183.072 436.254 181.049C436.254 179.025 434.612 177.384 432.587 177.384C430.563 177.384 428.921 179.025 428.921 181.049C428.921 183.072 430.563 184.713 432.587 184.713Z" fill="#FF6B2C"/>
<path opacity="0.3" d="M432.352 217.301L427.371 218.961C427.275 218.994 427.184 219.037 427.098 219.091L424.364 220.898C424.165 221.027 423.932 221.093 423.694 221.086L421.992 221.044C421.833 221.041 421.677 221.005 421.533 220.94C421.389 220.874 421.26 220.779 421.154 220.662L420.106 219.51C420.002 219.395 419.876 219.302 419.736 219.236C419.595 219.17 419.443 219.133 419.288 219.127C419.133 219.121 418.978 219.145 418.833 219.199C418.687 219.254 418.554 219.336 418.441 219.442L416.676 221.097C416.461 221.301 416.176 221.416 415.88 221.416H409.762C409.544 221.417 409.33 221.357 409.145 221.242C408.959 221.127 408.81 220.963 408.715 220.767L407.316 217.976C407.243 217.831 407.141 217.702 407.015 217.599C406.889 217.495 406.743 217.419 406.587 217.375C406.43 217.331 406.265 217.32 406.104 217.344C405.943 217.367 405.789 217.424 405.651 217.511L396.993 222.992C396.731 223.156 396.415 223.21 396.113 223.143L390.184 221.808C389.965 221.757 389.735 221.771 389.524 221.85L387.361 222.651C387.304 222.669 387.25 222.694 387.199 222.725L382.417 225.374C382.232 225.474 382.024 225.525 381.814 225.52L378.274 225.405C378.213 225.4 378.151 225.4 378.09 225.405L374.686 225.839C374.39 225.876 374.09 225.799 373.848 225.625L373.157 225.101C372.952 224.95 372.704 224.871 372.45 224.876L368.715 224.929C368.566 224.929 368.418 224.959 368.28 225.018L366.604 225.724C366.399 225.809 366.174 225.834 365.955 225.796C365.736 225.758 365.533 225.659 365.368 225.51L363.996 224.295C363.856 224.169 363.688 224.079 363.505 224.033C363.323 223.986 363.132 223.985 362.949 224.028L357.219 225.41L351.326 226.934C351.168 226.968 351.003 226.968 350.845 226.934L345.869 226.106C345.789 226.101 345.708 226.101 345.628 226.106L336.425 226.52C336.249 226.528 336.077 226.576 335.921 226.66C335.766 226.744 335.632 226.863 335.53 227.007L334.142 228.918C334.003 229.112 333.808 229.259 333.584 229.338C333.359 229.418 333.115 229.426 332.885 229.363L331.403 228.954C331.245 228.913 331.08 228.904 330.919 228.93C330.757 228.955 330.603 229.013 330.465 229.101L328.983 230.048C328.812 230.154 328.618 230.215 328.417 230.226L325.275 230.399C325.215 230.394 325.156 230.394 325.097 230.399L320.561 231.368C320.48 231.384 320.397 231.393 320.315 231.394H317.654C317.407 231.394 317.167 231.315 316.968 231.169L316.277 230.645C316.155 230.554 316.016 230.489 315.869 230.452C315.721 230.415 315.568 230.408 315.418 230.431L309.756 231.279C309.626 231.3 309.493 231.3 309.363 231.279L306.702 230.755C306.629 230.747 306.555 230.747 306.482 230.755H301.376C301.295 230.747 301.215 230.747 301.135 230.755L295.955 231.855C295.816 231.881 295.674 231.881 295.536 231.855L292.451 231.389C292.256 231.362 292.059 231.384 291.875 231.451L289.895 232.174C289.736 232.233 289.565 232.257 289.396 232.242C289.226 232.228 289.062 232.176 288.915 232.09L287.978 231.567C287.74 231.426 287.458 231.378 287.187 231.43L282.473 232.326C282.333 232.352 282.189 232.352 282.049 232.326L279.781 231.923C279.658 231.904 279.532 231.904 279.409 231.923L276.906 232.284C276.727 232.311 276.544 232.296 276.372 232.24C276.2 232.183 276.044 232.087 275.916 231.959L275.088 231.169C274.867 230.952 274.57 230.83 274.261 230.828H272.276C272.209 230.834 272.143 230.834 272.077 230.828L266.284 229.813C266.127 229.779 265.964 229.779 265.807 229.813L261.429 230.86C261.339 230.881 261.248 230.891 261.156 230.891H255.882C255.802 230.883 255.721 230.883 255.641 230.891L253.855 231.273C253.554 231.357 253.233 231.319 252.959 231.169L252.467 230.849C252.279 230.73 252.061 230.666 251.839 230.666H248.649C248.498 230.667 248.348 230.697 248.209 230.755L245.978 231.666C245.824 231.73 245.658 231.76 245.492 231.754C245.325 231.748 245.162 231.705 245.014 231.629L243.83 231.033C243.6 230.918 243.339 230.881 243.087 230.928L240.751 231.378C240.592 231.412 240.428 231.412 240.269 231.378L234.853 230.122H234.733L230.129 229.551C229.822 229.516 229.514 229.603 229.27 229.792L226.651 231.823C226.504 231.936 226.388 232.084 226.311 232.252L225.724 233.556C225.658 233.699 225.563 233.828 225.446 233.934C225.329 234.04 225.192 234.122 225.043 234.174L223.032 234.859C222.846 234.927 222.645 234.943 222.45 234.907L217.978 234.111C217.799 234.08 217.616 234.091 217.442 234.143C217.269 234.194 217.11 234.286 216.977 234.409L215.202 236.069C215.085 236.178 214.992 236.31 214.929 236.457C214.866 236.604 214.834 236.762 214.835 236.922C214.835 237.203 214.733 237.475 214.548 237.686C214.363 237.898 214.108 238.036 213.829 238.074L210.472 238.54C210.347 238.561 210.22 238.561 210.095 238.54L207.057 237.964C206.967 237.953 206.875 237.953 206.785 237.964L201.71 238.194C201.496 238.202 201.285 238.154 201.097 238.053L200.206 237.566C200.07 237.488 199.918 237.44 199.761 237.425L197.095 237.158C196.918 237.139 196.739 237.161 196.572 237.22L193.429 238.335C193.313 238.377 193.191 238.4 193.068 238.404L188.6 238.524C188.539 238.519 188.478 238.519 188.417 238.524L180.848 239.922C180.684 239.956 180.515 239.956 180.351 239.922L177.774 239.262C177.678 239.239 177.579 239.227 177.481 239.225H169.357C169.208 239.227 169.06 239.198 168.922 239.142L166.377 238.126C166.111 238.024 165.816 238.024 165.549 238.126L163.182 238.969C162.955 239.048 162.759 239.196 162.62 239.392C162.481 239.588 162.406 239.823 162.407 240.063V240.587C162.406 240.74 162.436 240.891 162.494 241.033C162.552 241.175 162.638 241.303 162.746 241.412C162.854 241.52 162.982 241.606 163.123 241.665C163.265 241.724 163.416 241.754 163.57 241.754H432.781C432.934 241.754 433.086 241.724 433.227 241.665C433.369 241.606 433.497 241.52 433.605 241.412C433.713 241.303 433.799 241.175 433.857 241.033C433.915 240.891 433.945 240.74 433.944 240.587L433.876 218.458C433.883 218.27 433.845 218.084 433.765 217.914C433.685 217.744 433.565 217.596 433.415 217.483C433.266 217.369 433.091 217.294 432.906 217.262C432.721 217.23 432.531 217.244 432.352 217.301Z" fill="#FF6B2C"/>
<path d="M230.941 209.318C232.965 209.318 234.607 207.677 234.607 205.653C234.607 203.629 232.965 201.989 230.941 201.989C228.916 201.989 227.274 203.629 227.274 205.653C227.274 207.677 228.916 209.318 230.941 209.318Z" fill="#FF6B2C"/>
<path d="M406.923 186.284C408.948 186.284 410.59 184.643 410.59 182.619C410.59 180.595 408.948 178.955 406.923 178.955C404.898 178.955 403.257 180.595 403.257 182.619C403.257 184.643 404.898 186.284 406.923 186.284Z" fill="#FF6B2C"/>
<path d="M315.789 210.888C317.814 210.888 319.456 209.248 319.456 207.224C319.456 205.2 317.814 203.559 315.789 203.559C313.765 203.559 312.123 205.2 312.123 207.224C312.123 209.248 313.765 210.888 315.789 210.888Z" fill="#FF6B2C"/>
<path d="M363.451 197.801C365.476 197.801 367.118 196.16 367.118 194.136C367.118 192.112 365.476 190.472 363.451 190.472C361.427 190.472 359.785 192.112 359.785 194.136C359.785 196.16 361.427 197.801 363.451 197.801Z" fill="#FF6B2C"/>
<path d="M434.41 182.703C434.409 182.426 434.333 182.155 434.19 181.917C434.047 181.68 433.843 181.486 433.598 181.356C433.354 181.225 433.079 181.163 432.802 181.177C432.526 181.19 432.258 181.278 432.027 181.431L427.973 184.132C427.831 184.228 427.705 184.346 427.601 184.483L425.082 187.807C424.929 188.004 424.732 188.162 424.506 188.267C424.28 188.373 424.032 188.423 423.783 188.414L422.961 188.372C422.679 188.358 422.406 188.267 422.172 188.108C421.938 187.949 421.753 187.729 421.636 187.472L421.112 186.357C420.995 186.095 420.807 185.871 420.568 185.711C420.33 185.551 420.052 185.461 419.765 185.452C419.478 185.443 419.194 185.514 418.946 185.659C418.698 185.803 418.496 186.014 418.362 186.268L417.315 188.273C417.184 188.519 416.989 188.724 416.749 188.867C416.51 189.01 416.237 189.085 415.958 189.084H410.762C410.42 189.086 410.087 188.972 409.817 188.761C409.547 188.55 409.356 188.255 409.275 187.922L408.028 182.933C407.959 182.655 407.813 182.402 407.607 182.203C407.401 182.003 407.144 181.865 406.863 181.805C406.583 181.744 406.292 181.764 406.022 181.86C405.752 181.957 405.514 182.127 405.336 182.352L397.847 191.817C397.635 192.086 397.34 192.276 397.007 192.357C396.675 192.438 396.325 192.404 396.013 192.262L391.2 190.089C390.948 189.972 390.669 189.924 390.392 189.953C390.115 189.982 389.851 190.085 389.629 190.252L387.906 191.524C387.823 191.585 387.748 191.655 387.68 191.733L383.134 196.764C382.981 196.939 382.791 197.077 382.577 197.168C382.362 197.259 382.13 197.3 381.898 197.288L378.928 197.099C378.767 197.089 378.604 197.104 378.447 197.141L375.77 197.827C375.465 197.906 375.143 197.89 374.847 197.779C374.552 197.669 374.298 197.469 374.12 197.209L373.817 196.759C373.671 196.547 373.475 196.376 373.247 196.26C373.018 196.144 372.764 196.087 372.507 196.094L369.522 196.183C369.177 196.189 368.846 196.315 368.584 196.539L367.851 197.151C367.677 197.297 367.474 197.403 367.254 197.46C367.035 197.518 366.806 197.526 366.583 197.485C366.36 197.443 366.149 197.353 365.965 197.22C365.782 197.087 365.63 196.915 365.52 196.717L364.745 195.314C364.556 194.971 364.243 194.713 363.87 194.594C363.497 194.474 363.093 194.501 362.739 194.67L357.716 197.083L352.159 199.952C351.978 200.045 351.78 200.101 351.576 200.117C351.373 200.132 351.169 200.106 350.975 200.041L346.55 198.575C346.351 198.51 346.141 198.485 345.932 198.502L337.363 199.235C337.072 199.265 336.796 199.376 336.565 199.554C336.333 199.733 336.156 199.972 336.054 200.245L334.812 203.711C334.737 203.919 334.618 204.109 334.463 204.267C334.308 204.424 334.12 204.547 333.913 204.625C333.706 204.704 333.485 204.737 333.264 204.722C333.043 204.707 332.828 204.644 332.633 204.538L332.581 204.512C332.263 204.336 331.892 204.279 331.536 204.352C331.18 204.425 330.861 204.623 330.638 204.91L329.664 206.156C329.405 206.48 329.029 206.689 328.616 206.737L325.935 207.025C325.783 207.04 325.635 207.077 325.495 207.135L321.247 208.951C321.056 209.03 320.851 209.071 320.645 209.072H318.602C318.352 209.072 318.106 209.01 317.885 208.894C317.664 208.777 317.475 208.608 317.334 208.402L317.041 207.972C316.857 207.704 316.593 207.501 316.286 207.393C315.979 207.285 315.645 207.277 315.334 207.37L310.573 208.81C310.246 208.908 309.896 208.895 309.578 208.773L307.367 207.925C307.2 207.859 307.023 207.824 306.844 207.82H302.098C301.893 207.82 301.689 207.863 301.501 207.946L296.787 209.946C296.456 210.089 296.085 210.109 295.74 210.003L293.409 209.307C293.182 209.24 292.943 209.225 292.709 209.265C292.476 209.305 292.255 209.398 292.063 209.538L291.042 210.286C290.733 210.512 290.35 210.615 289.969 210.573C289.588 210.531 289.237 210.349 288.984 210.061L288.832 209.888C288.626 209.653 288.353 209.487 288.049 209.411C287.746 209.335 287.427 209.354 287.135 209.464L283.337 210.914C282.999 211.038 282.628 211.038 282.29 210.914L280.624 210.318C280.32 210.213 279.991 210.203 279.682 210.291L278.11 210.747C277.766 210.846 277.398 210.822 277.07 210.678C276.742 210.535 276.475 210.281 276.314 209.962L275.727 208.784C275.599 208.529 275.403 208.315 275.161 208.166C274.919 208.016 274.64 207.936 274.355 207.936H272.993C272.815 207.939 272.638 207.91 272.469 207.852L267.185 205.999C266.995 205.931 266.793 205.901 266.592 205.912C266.39 205.923 266.193 205.974 266.011 206.062L262.151 207.915C261.943 208.013 261.716 208.065 261.486 208.067H256.61C256.403 208.067 256.199 208.108 256.008 208.187L255.013 208.616C254.701 208.748 254.355 208.774 254.028 208.69C253.7 208.606 253.409 208.416 253.2 208.15C253.057 207.966 252.874 207.817 252.664 207.714C252.454 207.612 252.224 207.558 251.99 207.559H249.529C249.174 207.558 248.83 207.68 248.555 207.904L247.125 209.077C246.831 209.32 246.456 209.444 246.075 209.425C245.694 209.406 245.334 209.244 245.066 208.972L244.742 208.648C244.532 208.437 244.265 208.291 243.974 208.229C243.683 208.166 243.38 208.19 243.102 208.297L241.678 208.847C241.288 208.992 240.857 208.977 240.478 208.805L235.466 206.48C235.377 206.438 235.284 206.406 235.188 206.386L231.255 205.418C230.945 205.34 230.618 205.362 230.321 205.48C230.024 205.599 229.772 205.808 229.6 206.077L227.128 209.93C227.033 210.078 226.964 210.241 226.923 210.412L226.174 213.684C226.085 214.057 225.861 214.385 225.546 214.605L223.912 215.725C223.713 215.862 223.484 215.95 223.245 215.981C223.005 216.012 222.762 215.985 222.534 215.903L219.172 214.71C218.82 214.586 218.436 214.594 218.09 214.733C217.743 214.871 217.46 215.131 217.291 215.464L215.521 218.772C215.405 218.995 215.344 219.243 215.343 219.495V220.987C215.342 221.322 215.231 221.647 215.028 221.914C214.825 222.18 214.54 222.373 214.217 222.463L211.274 223.28C210.961 223.368 210.629 223.353 210.326 223.238L207.759 222.269C207.542 222.186 207.309 222.154 207.078 222.175L202.652 222.578C202.417 222.601 202.179 222.568 201.958 222.483C201.737 222.397 201.539 222.262 201.38 222.086L200.856 221.505C200.638 221.26 200.345 221.095 200.023 221.034L198.007 220.625C197.801 220.586 197.589 220.589 197.384 220.633C197.179 220.677 196.984 220.762 196.813 220.882L194.157 222.772C193.92 222.939 193.64 223.037 193.351 223.054L189.281 223.269C189.127 223.279 188.975 223.31 188.83 223.363L181.765 225.981C181.567 226.056 181.356 226.088 181.144 226.075C180.933 226.063 180.727 226.006 180.539 225.908L178.497 224.861C178.281 224.751 178.042 224.693 177.8 224.693H170.206C169.855 224.693 169.515 224.573 169.242 224.353L167.404 222.882C167.143 222.673 166.822 222.555 166.488 222.546C166.154 222.536 165.827 222.636 165.555 222.829L163.585 224.232C163.386 224.375 163.224 224.562 163.112 224.78C163 224.998 162.941 225.239 162.941 225.483" stroke="#FF6B2C" stroke-miterlimit="10"/>
<path opacity="0.2" d="M453.538 263.212H147.139V263.265H453.538V263.212Z" fill="#F2F2F2"/>
<path opacity="0.3" d="M194.278 265.856C195.724 265.856 196.896 264.684 196.896 263.239C196.896 261.793 195.724 260.621 194.278 260.621C192.831 260.621 191.659 261.793 191.659 263.239C191.659 264.684 192.831 265.856 194.278 265.856Z" fill="#FF6B2C"/>
<path opacity="0.3" d="M232.512 265.856C233.958 265.856 235.131 264.684 235.131 263.239C235.131 261.793 233.958 260.621 232.512 260.621C231.066 260.621 229.893 261.793 229.893 263.239C229.893 264.684 231.066 265.856 232.512 265.856Z" fill="#FF6B2C"/>
<path opacity="0.3" d="M270.746 265.856C272.193 265.856 273.365 264.684 273.365 263.239C273.365 261.793 272.193 260.621 270.746 260.621C269.3 260.621 268.127 261.793 268.127 263.239C268.127 264.684 269.3 265.856 270.746 265.856Z" fill="#FF6B2C"/>
<path opacity="0.3" d="M308.981 265.856C310.427 265.856 311.599 264.684 311.599 263.239C311.599 261.793 310.427 260.621 308.981 260.621C307.534 260.621 306.362 261.793 306.362 263.239C306.362 264.684 307.534 265.856 308.981 265.856Z" fill="#FF6B2C"/>
<path opacity="0.3" d="M347.215 265.856C348.661 265.856 349.834 264.684 349.834 263.239C349.834 261.793 348.661 260.621 347.215 260.621C345.769 260.621 344.596 261.793 344.596 263.239C344.596 264.684 345.769 265.856 347.215 265.856Z" fill="#FF6B2C"/>
<path opacity="0.3" d="M385.449 265.856C386.896 265.856 388.068 264.684 388.068 263.239C388.068 261.793 386.896 260.621 385.449 260.621C384.003 260.621 382.83 261.793 382.83 263.239C382.83 264.684 384.003 265.856 385.449 265.856Z" fill="#FF6B2C"/>
<path opacity="0.3" d="M423.684 265.856C425.13 265.856 426.302 264.684 426.302 263.239C426.302 261.793 425.13 260.621 423.684 260.621C422.237 260.621 421.065 261.793 421.065 263.239C421.065 264.684 422.237 265.856 423.684 265.856Z" fill="#FF6B2C"/>
<path d="M125.545 364.181C123.974 361.296 125.754 357.762 127.792 355.192C129.829 352.622 132.301 349.957 132.249 346.664C132.17 341.953 127.168 339.168 123.172 336.671C120.204 334.816 117.468 332.614 115.023 330.111C113.999 329.149 113.152 328.015 112.519 326.761C111.691 324.918 111.712 322.824 111.765 320.808C111.943 314.08 112.276 307.363 112.765 300.659" stroke="#3F3D56" stroke-width="4" stroke-miterlimit="10"/>
<path d="M105.165 300.303C105.221 299.072 105.586 297.875 106.227 296.823C106.868 295.771 107.764 294.897 108.832 294.282L110.476 297.533L110.424 293.597C111.211 293.366 112.03 293.267 112.849 293.303C114.296 293.375 115.689 293.874 116.852 294.736C118.016 295.598 118.898 296.785 119.387 298.148C119.877 299.51 119.951 300.987 119.602 302.392C119.252 303.797 118.494 305.067 117.423 306.042C116.352 307.017 115.017 307.653 113.584 307.87C112.152 308.087 110.688 307.875 109.376 307.261C108.064 306.647 106.964 305.659 106.214 304.42C105.463 303.182 105.097 301.749 105.16 300.303H105.165Z" fill="#57B894"/>
<path d="M118.275 350.03C119.046 351.524 120.307 352.707 121.848 353.382C123.388 354.057 125.113 354.182 126.735 353.737C128.356 353.291 129.775 352.302 130.754 350.936C131.733 349.569 132.212 347.907 132.111 346.23C132.01 344.552 131.335 342.96 130.199 341.72C129.063 340.481 127.536 339.669 125.873 339.421C124.209 339.173 122.512 339.504 121.063 340.359C119.615 341.213 118.505 342.539 117.919 344.115L122.512 347.847L117.458 346.68C117.46 347.846 117.74 348.994 118.275 350.03Z" fill="#57B894"/>
<path d="M121.905 335.765C123.731 335.894 125.54 335.335 126.975 334.199C128.41 333.062 129.368 331.43 129.66 329.623C129.952 327.817 129.558 325.966 128.554 324.436C127.55 322.905 126.009 321.806 124.235 321.353L124.277 324.379L122.612 321.086C121.647 321.039 120.683 321.182 119.774 321.509C118.866 321.835 118.03 322.338 117.316 322.987C116.602 323.637 116.024 324.422 115.614 325.295C115.204 326.169 114.971 327.116 114.928 328.08C114.885 328.928 114.992 329.776 115.242 330.587C115.684 332.031 116.561 333.303 117.754 334.23C118.946 335.157 120.396 335.693 121.905 335.765Z" fill="#57B894"/>
<path d="M104.06 323.897C105.189 323.938 106.311 323.719 107.341 323.255C108.37 322.792 109.279 322.097 109.996 321.225C110.712 320.353 111.218 319.327 111.473 318.228C111.728 317.129 111.725 315.985 111.466 314.887C111.206 313.789 110.696 312.765 109.975 311.896C109.255 311.027 108.343 310.336 107.312 309.877C106.28 309.418 105.157 309.204 104.028 309.25C102.9 309.296 101.798 309.602 100.808 310.144L102.107 313.704L99.4355 311.139C98.004 312.45 97.1508 314.274 97.0629 316.212C97.028 316.893 97.0897 317.575 97.2462 318.238C97.613 319.793 98.4763 321.186 99.7057 322.207C100.935 323.228 102.464 323.821 104.06 323.897Z" fill="#57B894"/>
<path opacity="0.1" d="M106.155 302.261C107.852 302.444 109.502 302.973 111.204 303.077C112.907 303.182 114.776 302.774 115.855 301.454C116.431 300.742 116.725 299.837 117.212 299.062C117.677 298.337 118.314 297.739 119.066 297.319C119.509 298.245 119.753 299.255 119.781 300.282C119.809 301.309 119.621 302.33 119.229 303.279C118.836 304.229 118.249 305.085 117.504 305.793C116.759 306.501 115.874 307.044 114.905 307.388C113.937 307.732 112.907 307.868 111.882 307.789C110.858 307.709 109.861 307.415 108.958 306.925C108.054 306.436 107.264 305.762 106.637 304.948C106.011 304.133 105.563 303.196 105.322 302.198C105.602 302.208 105.879 302.229 106.155 302.261Z" fill="black"/>
<path opacity="0.1" d="M104.06 323.897C105.328 323.961 106.591 323.696 107.725 323.126C108.859 322.556 109.826 321.702 110.531 320.646C111.235 319.591 111.654 318.371 111.745 317.106C111.837 315.84 111.598 314.573 111.052 313.427C110.469 313.819 109.968 314.32 109.575 314.903C109.052 315.694 108.732 316.605 108.119 317.332C106.972 318.678 105.019 319.117 103.243 319.039C101.468 318.96 99.7549 318.453 98.0056 318.29C97.7594 318.29 97.5133 318.254 97.2619 318.248C97.6299 319.799 98.4918 321.188 99.7178 322.207C100.944 323.226 102.468 323.819 104.06 323.897Z" fill="black"/>
<path opacity="0.1" d="M121.905 335.765C123.163 335.83 124.418 335.57 125.547 335.01C126.675 334.45 127.641 333.608 128.349 332.566C129.058 331.524 129.486 330.317 129.592 329.062C129.698 327.807 129.478 326.545 128.954 325.399C128.345 325.798 127.812 326.303 127.383 326.891C126.812 327.698 126.456 328.624 125.812 329.368C124.571 330.75 122.486 331.236 120.611 331.189C118.736 331.142 117.034 330.708 115.227 330.566C115.666 332.016 116.544 333.295 117.74 334.226C118.935 335.157 120.391 335.694 121.905 335.765Z" fill="black"/>
<path opacity="0.1" d="M118.275 350.03C119.07 351.807 120.539 353.195 122.358 353.889C124.177 354.583 126.198 354.526 127.975 353.731C129.752 352.937 131.141 351.469 131.835 349.65C132.53 347.832 132.473 345.813 131.678 344.036C131.071 344.431 130.528 344.914 130.065 345.471C129.363 346.324 128.902 347.292 128.096 348.088C126.592 349.564 124.167 350.182 122.004 350.229C120.758 350.234 119.513 350.168 118.275 350.03Z" fill="black"/>
<path d="M136.633 360.862C136.633 360.862 130.83 360.684 129.08 359.438C127.331 358.192 120.176 356.71 119.726 358.705C119.275 360.699 111.005 368.651 117.552 368.683C124.099 368.714 132.773 367.662 134.522 366.589C136.271 365.516 136.633 360.862 136.633 360.862Z" fill="#656380"/>
<path opacity="0.2" d="M117.437 367.986C123.989 368.039 132.657 366.971 134.402 365.892C135.732 365.081 136.261 362.176 136.439 360.841H136.633C136.633 360.841 136.266 365.516 134.538 366.599C132.809 367.683 124.12 368.735 117.568 368.693C115.677 368.693 115.028 368.007 115.064 367.013C115.311 367.599 116.028 367.976 117.437 367.986Z" fill="black"/>
<path d="M502.268 296.423C501.887 297.517 501.742 298.678 501.844 299.831C502.099 300.983 502.639 302.053 503.415 302.941C503.804 303.56 504.409 304.013 505.112 304.213C505.477 304.247 505.844 304.181 506.174 304.021C506.503 303.862 506.783 303.615 506.982 303.308C507.375 302.688 507.609 301.982 507.663 301.25C507.81 299.302 507.714 297.343 507.375 295.418C507.155 293.801 507.097 292.021 506.668 290.456C505.557 290.456 504.274 290.251 503.656 291.309C502.865 292.686 502.677 294.884 502.268 296.423Z" fill="#FFC0C6"/>
<path d="M508.344 267.605C508.071 268.374 507.689 269.107 507.438 269.887C507.198 270.699 507.022 271.529 506.914 272.369C506.136 277.298 505.087 282.181 503.771 286.995C503.303 288.409 503.039 289.883 502.986 291.372L505.982 291.267C506.263 291.222 506.552 291.286 506.788 291.445C507.045 291.675 507.218 292.183 507.542 292.052C508.104 289.176 508.498 286.269 508.721 283.346C508.841 281.252 508.784 279.2 508.92 277.132C509.182 273.012 510.407 268.317 508.805 264.333C508.865 265.443 508.708 266.554 508.344 267.605Z" fill="#3F3D56"/>
<path opacity="0.1" d="M508.344 267.605C508.071 268.374 507.689 269.107 507.438 269.887C507.198 270.699 507.022 271.529 506.914 272.369C506.136 277.298 505.087 282.181 503.771 286.995C503.303 288.409 503.039 289.883 502.986 291.372L505.982 291.267C506.263 291.222 506.552 291.286 506.788 291.445C507.045 291.675 507.218 292.183 507.542 292.052C508.104 289.176 508.498 286.269 508.721 283.346C508.841 281.252 508.784 279.2 508.92 277.132C509.182 273.012 510.407 268.317 508.805 264.333C508.865 265.443 508.708 266.554 508.344 267.605Z" fill="black"/>
<path d="M512.068 242.927C511.334 243.555 511.083 244.56 510.868 245.502L509.129 253.156C508.731 254.904 508.333 256.653 508.082 258.428C506.982 265.84 508.255 273.463 507.034 280.854C506.681 282.502 506.447 284.173 506.333 285.854C506.28 288.932 507.469 291.995 506.977 295.031C506.811 295.57 506.811 296.146 506.977 296.685C507.228 297.209 508.077 297.376 508.312 296.868C508.354 296.776 508.381 296.677 508.391 296.575L510.203 285.147C510.638 282.43 511.067 279.671 510.769 276.933C510.565 275.07 510.02 273.206 510.318 271.353C510.515 270.435 510.783 269.533 511.12 268.657C512.869 263.422 512.628 257.731 511.643 252.318C511.444 251.532 511.388 250.716 511.476 249.91C511.717 248.586 512.743 247.57 513.435 246.418C513.958 245.549 514.859 243.639 514.482 242.592C514.095 241.367 512.806 242.293 512.068 242.927Z" fill="#3F3D56"/>
<path d="M514.969 353.585C514.728 353.559 514.485 353.603 514.268 353.71C514.084 353.844 513.941 354.025 513.854 354.234C513.272 355.433 512.864 356.82 511.759 357.595C511.203 357.943 510.592 358.194 509.952 358.338L505.028 359.741C504.395 359.919 503.672 360.181 503.457 360.788C503.242 361.396 503.703 362.139 504.295 362.495C505.176 362.914 506.151 363.095 507.123 363.018L514.252 363.123C514.929 363.171 515.609 363.102 516.263 362.919C517.096 362.626 517.798 361.961 518.672 361.872C519.385 361.793 520.071 362.102 520.767 362.259C522.218 362.579 523.721 362.259 525.162 361.893C525.423 361.857 525.667 361.74 525.858 361.558C526.015 361.331 526.09 361.058 526.073 360.783C526.131 359.563 526.152 358.349 526.146 357.119C526.146 356.014 526.015 354.731 525.099 354.124C524.677 353.882 524.206 353.738 523.721 353.7C520.799 353.328 517.913 353.606 514.969 353.585Z" fill="#575A88"/>
<path d="M533.83 369.086C533.629 369.562 533.374 370.013 533.07 370.431L530.069 374.975C528.844 376.823 527.576 378.802 527.492 381.016C529.493 381.786 531.641 382.096 533.778 381.922C534.847 381.895 535.888 381.57 536.784 380.985C538.072 380.038 538.58 378.368 538.999 376.839C539.029 376.635 539.131 376.45 539.287 376.315C539.555 376.132 539.916 376.315 540.241 376.247C540.906 376.164 541.136 375.326 541.183 374.677C541.316 372.607 541.14 370.528 540.66 368.51C540.623 368.258 540.512 368.023 540.34 367.835C540.141 367.685 539.903 367.596 539.654 367.578C538.156 367.322 536.658 367.023 535.155 366.803C533.17 366.484 534.39 367.657 533.83 369.086Z" fill="#575A88"/>
<path d="M509.046 288.116C507.595 289.958 507.129 292.419 507.239 294.759C507.349 297.099 507.993 299.381 508.532 301.664C509.417 305.378 510.058 309.147 510.449 312.945C510.511 314.008 510.687 315.061 510.973 316.086C511.23 316.882 511.628 317.625 511.858 318.426C512.141 319.4 512.167 320.437 512.429 321.416C512.783 322.473 513.235 323.495 513.78 324.468C516.174 329.357 516.687 334.938 516.729 340.382C516.729 341.853 516.729 343.319 516.865 344.78C517.169 347.743 518.086 351.062 516.31 353.449C516.761 355.072 518.929 355.38 520.584 355.166C522.529 354.924 524.431 354.413 526.235 353.648C525.712 352.538 524.947 351.245 524.984 349.983C525.094 348.997 525.345 348.031 525.727 347.114C526.675 344.235 526.775 341.157 526.827 338.126C526.866 337.19 526.852 336.254 526.785 335.32C526.693 334.458 526.553 333.601 526.366 332.755L524.339 322.604C523.984 320.821 523.936 318.99 524.198 317.191C524.579 315.058 525.303 313 526.34 311.097C528.765 306.203 529.603 300.685 530.08 295.24C530.336 292.267 530.399 288.958 528.508 286.65C527.339 285.317 525.757 284.414 524.015 284.085C522.287 283.769 520.524 283.701 518.777 283.88C515.273 284.174 511.219 285.362 509.046 288.116Z" fill="#3F3D56"/>
<path d="M509.47 289.419C508.8 291.67 510.465 293.864 511.324 296.052C511.816 297.314 512.063 298.669 512.817 299.816C513.749 301.214 515.352 302.041 516.363 303.386C517.373 304.732 517.667 306.307 518.458 307.705C519.248 309.103 520.553 310.265 521.286 311.72C522.396 313.893 522.234 316.5 523.014 318.814C523.569 320.473 524.612 321.955 525.015 323.667C525.193 324.436 525.24 325.237 525.439 325.991C525.905 327.792 527.183 329.362 527.314 331.226C527.398 332.446 526.99 333.786 527.634 334.823C528.021 335.456 528.723 335.828 529.205 336.393C529.557 336.907 529.811 337.482 529.954 338.089L531.002 341.518C532.012 344.848 532.128 348.287 533.097 351.632C534.066 354.977 534.752 358.595 533.62 361.893C533.165 363.259 532.405 364.662 532.788 366.05C532.951 366.54 533.219 366.989 533.573 367.365C533.928 367.741 534.361 368.036 534.841 368.227C535.807 368.598 536.833 368.791 537.868 368.798C539.256 368.871 540.749 368.798 541.896 368.028C541.333 363.823 541.108 359.58 541.225 355.339C541.356 352.575 541.749 349.821 541.749 347.052C541.691 345.298 541.525 343.55 541.252 341.817C540.938 339.223 540.384 336.664 539.597 334.173C539.158 333.06 538.79 331.92 538.497 330.76C538.329 329.97 538.277 329.158 538.161 328.357C538.046 327.556 537.873 326.787 537.701 325.965L536.999 322.73C536.842 322.018 536.412 321.395 536.381 320.667L536.166 315.955C535.82 308.239 535.485 300.397 537.344 292.921C536.26 289.707 534.432 286.32 531.316 284.975C530.033 284.462 528.664 284.201 527.283 284.205C520.919 284.006 515.221 286.733 509.47 289.419Z" fill="#3F3D56"/>
<path d="M514.226 236.65C514.524 236.845 514.799 237.075 515.043 237.336C515.333 237.692 515.563 238.093 515.724 238.524C516.316 239.957 516.67 241.478 516.771 243.026C520.17 240.641 523.296 237.89 526.094 234.823C524.842 234.917 523.69 234.022 523.093 232.922C522.567 231.783 522.265 230.553 522.203 229.3C522.171 229.064 518.939 230.436 518.678 230.577C517.525 231.205 516.446 231.954 515.32 232.624C514.779 232.955 514.222 233.257 513.649 233.53C513.126 233.771 512.298 233.881 511.863 234.226C510.706 235.158 513.513 236.153 514.226 236.65Z" fill="#FFC0C6"/>
<path d="M513.702 240.194C513.571 241.204 513.744 242.236 513.592 243.241C513.377 244.691 512.544 245.953 511.916 247.282C510.198 251.015 510.345 255.292 510.266 259.396C510.187 263.888 509.816 268.364 509.438 272.84L508.752 281.033C508.632 282.446 508.511 283.87 508.229 285.268C508.079 285.856 508.007 286.462 508.014 287.069C508.103 287.799 508.319 288.507 508.653 289.163C508.965 290.035 509.463 290.828 510.114 291.487C510.446 291.81 510.871 292.02 511.329 292.087C511.787 292.153 512.255 292.073 512.665 291.859L513.283 290C513.305 290.744 513.606 291.452 514.126 291.984C514.646 292.516 515.347 292.834 516.09 292.874C516.624 292.855 517.153 292.764 517.661 292.602L522.506 291.288C523.554 291.051 524.573 290.7 525.544 290.241C527.639 289.126 529.043 287.032 529.797 284.791C530.551 282.551 530.703 280.169 530.792 277.813C530.986 272.374 530.839 266.882 529.687 261.584C529.205 259.359 528.545 257.171 528.147 254.931C527.684 251.908 527.457 248.854 527.466 245.795L527.299 238.226C527.344 237.287 527.185 236.349 526.832 235.477C526.647 235.047 526.33 234.687 525.928 234.447C525.525 234.207 525.057 234.101 524.591 234.142C523.14 234.415 522.8 236.283 522.014 237.535C521.343 238.608 520.217 239.299 519.133 239.953C518.421 240.382 517.531 240.822 516.797 240.424C516.064 240.026 516.069 238.744 515.315 238.414C514.315 237.875 513.791 239.419 513.702 240.194Z" fill="#F2F2F2"/>
<path d="M520.642 242.319C519.269 245.827 518.547 249.549 517.855 253.255C517.127 257.25 516.473 261.349 517.138 265.354C518.395 272.929 524.146 279.048 526.104 286.472C526.445 287.76 526.67 289.089 527.152 290.335C527.901 292.429 529.247 294.209 530.572 295.973C531.284 296.921 532.337 297.984 533.458 297.601C534.291 297.313 534.657 296.366 535.291 295.748C536.176 294.884 537.533 294.733 538.769 294.79C540.005 294.848 541.273 295.073 542.472 294.79C543.671 294.507 544.813 293.434 544.693 292.173C544.614 291.382 544.059 290.738 543.645 290.079C542.44 288.278 541.98 286.09 541.629 283.948C539.612 271.599 540.513 258.904 538.371 246.575C538.104 245.005 537.769 243.434 536.883 242.147C536.448 241.6 536.044 241.028 535.674 240.435C535.338 239.791 535.192 239.042 534.752 238.461C534.123 237.634 533.044 237.325 532.054 237.006C530.708 236.571 529.399 236.027 528.142 235.378C527.189 234.886 525.837 233.525 524.874 234.174C523.91 234.823 523.182 237.09 522.663 238.074C521.91 239.45 521.235 240.867 520.642 242.319Z" fill="#3F3D56"/>
<path d="M524.79 293.356C524.046 293.528 523.255 293.293 522.506 293.46C521.275 293.743 520.568 294.994 520.013 296.125C519.809 296.474 519.682 296.864 519.641 297.266C519.627 297.467 519.677 297.667 519.785 297.838C519.892 298.008 520.051 298.14 520.238 298.214C520.446 298.244 520.658 298.217 520.851 298.135C521.044 298.052 521.211 297.919 521.333 297.748C521.573 297.406 521.855 297.094 522.171 296.821C523.041 296.24 524.224 296.858 524.9 297.654C525.575 298.449 526.084 299.449 526.995 299.926C527.523 300.161 528.089 300.3 528.666 300.334C529.271 300.433 529.888 300.433 530.494 300.334C530.798 300.285 531.086 300.165 531.335 299.983C531.584 299.801 531.785 299.562 531.923 299.287C532.057 298.926 532.116 298.541 532.096 298.156L532.185 292.921C532.222 292.615 532.159 292.305 532.007 292.037C531.824 291.824 531.581 291.671 531.311 291.597C530.336 291.225 528.226 289.963 527.246 290.597C526.152 291.372 526.361 292.995 524.79 293.356Z" fill="#FFC0C6"/>
<path d="M514.728 236.566C519.854 236.566 524.009 232.413 524.009 227.29C524.009 222.166 519.854 218.013 514.728 218.013C509.603 218.013 505.447 222.166 505.447 227.29C505.447 232.413 509.603 236.566 514.728 236.566Z" fill="#FFC0C6"/>
<path d="M513.817 226.279C513.747 225.945 513.585 225.636 513.351 225.388C513.116 225.139 512.817 224.96 512.487 224.871C512.23 224.851 511.974 224.814 511.722 224.761C510.847 224.463 510.868 223.128 510.119 222.594C509.548 222.191 508.763 222.4 508.14 222.704C507.516 223.007 506.888 223.416 506.196 223.379C505.764 223.323 505.361 223.13 505.046 222.829C504.732 222.527 504.522 222.133 504.447 221.704C504.317 220.839 504.483 219.955 504.918 219.196C506.312 216.464 509.229 214.898 512.052 213.705C513.276 213.136 514.573 212.743 515.907 212.537C517.251 212.335 518.622 212.627 519.767 213.359C520.128 213.61 520.443 213.914 520.815 214.15C521.18 214.365 521.558 214.559 521.946 214.731C525.675 216.6 527.618 221.29 526.597 225.337C526.241 226.745 525.549 228.07 525.335 229.499C525.305 229.887 525.205 230.266 525.041 230.619C524.565 231.457 523.407 231.535 522.422 231.509C522.16 231.532 521.898 231.469 521.674 231.331C521.469 231.126 521.338 230.859 521.302 230.572C520.914 229.001 520.306 227.394 519.034 226.384C518.353 225.86 517.253 225.588 516.698 226.253C516.476 226.604 516.3 226.983 516.174 227.379C515.902 227.939 515.064 228.572 514.388 228.426C513.44 228.2 514.042 227.153 513.817 226.279Z" fill="#3F3D56"/>
<path opacity="0.1" d="M536.674 238.665C535.558 238.534 535.344 244.377 534.218 244.382C533.898 244.382 533.956 243.152 533.694 243.335C533.432 243.518 534.369 247.523 534.218 247.837C533.647 249.015 534.783 244.01 534.218 245.188C533.469 246.727 533.809 247.23 533.421 248.9C532.562 252.564 528.283 255.224 529.153 258.878C530.166 262.876 530.904 266.94 531.363 271.039C531.517 272.347 531.539 273.668 531.431 274.981C531.133 277.829 529.828 280.462 528.514 283.011C527.361 285.241 526.188 287.461 525.251 289.785C524.952 290.351 524.86 291.002 524.989 291.628C525.376 292.806 526.937 292.932 528.131 293.272C530.577 293.968 532.667 296.413 535.15 295.842C536.26 292.471 536.129 288.916 537.098 285.498C538.093 281.996 540.419 278.949 541.173 275.389C541.435 273.917 541.561 272.424 541.55 270.929L541.917 254.412C541.965 253.431 541.932 252.446 541.817 251.47C541.637 250.467 541.372 249.481 541.026 248.523L539.109 242.764C538.607 241.225 538.25 238.854 536.674 238.665Z" fill="black"/>
<path d="M537.47 238.665C536.352 238.534 535.228 238.471 534.102 238.477C533.773 238.422 533.435 238.491 533.155 238.673C532.875 238.854 532.673 239.133 532.589 239.456L530.876 242.979C530.074 244.493 529.44 246.091 528.985 247.743C528.126 251.407 529.079 255.213 529.949 258.867C530.962 262.866 531.7 266.929 532.159 271.028C532.313 272.337 532.335 273.657 532.227 274.97C531.929 277.818 530.624 280.451 529.31 283.001C528.158 285.231 526.984 287.451 526.047 289.775C525.746 290.339 525.653 290.992 525.785 291.618C526.173 292.796 527.733 292.921 528.928 293.262C531.373 293.958 533.463 296.403 535.946 295.832C537.056 292.461 536.925 288.906 537.894 285.487C538.889 281.985 541.215 278.938 541.969 275.379C542.231 273.907 542.357 272.414 542.346 270.918L542.708 254.402C542.761 253.42 542.728 252.436 542.608 251.46C542.432 250.456 542.169 249.47 541.822 248.512L539.905 242.754C539.403 241.225 539.047 238.854 537.47 238.665Z" fill="#3F3D56"/>
</g>
<defs>
<clipPath id="clip0">
<rect width="596" height="388" fill="white"/>
</clipPath>
</defs>
</svg>
